<svg xmlns="http://www.w3.org/2000/svg" viewBox="0 0 500 500"><g id="freepik--Character--inject-9"><path d="M271.12,432h-86.9c-2.74-29.46-5.49-59.65-7.67-83.72-.07-.8-.15-1.6-.22-2.39-2.46-27.23-4.13-46.05-4.13-46.05h82a1.79,1.79,0,0,1,0,.25C254.81,304.55,263.16,369.63,271.12,432Z" style="fill:#37474f"></path><path d="M197.39,432H196c-3.79-31.9-6.87-63.86-9.67-95.86v0q-.24-2.87-.5-5.75c-.56-6.57-1.12-13.17-1.66-19.75,0-.2.29-.2.32,0q.92,8.75,1.78,17.46a.09.09,0,0,1,0,.05c.2,2.12.42,4.23.63,6.36h0c2.23,22.08,4.44,44.14,6.86,66.19Q195.49,416.37,197.39,432Z" style="fill:#263238"></path><path d="M242.36,299.84l-11,72.72h0l-.39,2.46v0l-1,6.55h0l-.08.46-.26,1.76h0L222.31,432H175.63c-4.79-27-9.69-54.68-13.75-77.65h0c-.09-.52-.18-1-.27-1.52-5.47-30.91-9.38-53-9.38-53Z" style="fill:#263238"></path><path d="M254.28,299.77s0,.1-.05.32c-.65,4.24-7.71,49.71-19.44,79.55h0c-.08.25-.17.48-.28.74,0,0-1.65.51-4.63,1.69-1.16.46-2.54,1-4.1,1.7h0l-1.7.76c-3.44,1.54-7.61,3.56-12.37,6.14-.46.24-.91.49-1.36.74,0,0,0,.19,0,.54h0c-.24,3.13-1.46,19.19-3,40H125.49c6.3-64.93,13.22-132.23,13.22-132.23Z" style="fill:#37474f"></path><path d="M147.87,312.42c-2.33,30.46-4.56,60.92-7,91.34q-1.14,14.12-2.34,28.24h-1.2q5.19-59.78,9.87-119.56C147.22,312,147.9,312,147.87,312.42Z" style="fill:#263238"></path><path d="M238.65,378.24a180.07,180.07,0,0,0-28.3,13.18.32.32,0,0,0,.26.59c9.53-4.1,19.25-8,28.55-12.63A.62.62,0,0,0,238.65,378.24Z" style="fill:#263238"></path><path d="M241.68,312.82c0-.33-.61-.4-.6,0,.07,11.32-.65,21.27-1.6,31.85-.45,4.91-4.4,32.05-12.91,30.07-1.43-.33-2.16-1.73-2.38-3.88-.27-2.58.7-5.75,1.13-8.32,1-5.69,1.71-11.39,2.19-17.12a155.92,155.92,0,0,0-.34-32.11.28.28,0,0,0-.55,0c0,14.83-.38,29.63-2.6,44.32-1.06,7.06-4.62,17.69,2.77,18.77s12.38-16.69,13.3-21.56C242.65,341.24,242.75,326.57,241.68,312.82Z" style="fill:#263238"></path><path d="M226.79,375.43a46.62,46.62,0,0,0-1.91,5.63,12.71,12.71,0,0,0-.8,4.62.33.33,0,0,0,.59.13,16.36,16.36,0,0,0,2-4.5c.65-1.74,1.33-3.47,1.93-5.23A1,1,0,0,0,226.79,375.43Z" style="fill:#263238"></path><path d="M188.26,321.7a15.36,15.36,0,0,0-.36-3.52.18.18,0,0,0-.35,0,14,14,0,0,0-.39,3c-.12,1.17-.28,2.33-.4,3.5a52.85,52.85,0,0,1-1.25,7.09,25.21,25.21,0,0,1-6.5,11.69,34.16,34.16,0,0,1-11,7.24c-4.57,1.94-9.39,2.66-14.11,4.05-.2.05-.14.34,0,.35a41,41,0,0,0,15.29-3,32.88,32.88,0,0,0,11.47-7.32,25.48,25.48,0,0,0,6.68-12,35.42,35.42,0,0,0,.92-7.11A33.2,33.2,0,0,0,188.26,321.7Z" style="fill:#263238"></path><path d="M219.13,195c6.59,14.76,54.56,83.14,93.11,91.4,6.5,1.39,26.67,7.77,38.34-8.9,15.77-22.51,25.83-65.62,23.62-88.61-1.83-19-53.78-4.75-56.84,6.07-2.31,8.19-6.42,35.06-8.1,34.63-10.92-2.82-43.45-31-75.87-48.35C218.36,173.14,214.06,183.59,219.13,195Z" style="fill:#ad6359"></path><path d="M306.07,241.27a50,50,0,0,1,.93-5,53.49,53.49,0,0,1,3.34-9.25c.06-.13.3-.05.25.1-1,3.07-1.73,6.26-2.55,9.39-.4,1.56-.78,3.11-1.13,4.68s-.79,3.2-1.06,4.82c0,.09-.18.08-.17,0C305.79,244.4,305.85,242.84,306.07,241.27Z" style="fill:#263238"></path><path d="M374.44,192.4s-.86-24.9-9.79-41.46c-6.17-11.45-22.38-34.86-61.17-36.36-9.2-.35-22.57,5.67-7.75,11.7,10.53,4.29,18.5,3.83,24.17,7.44,0,0-16.09,9.68-16.09,18.91,0,4.13-.61,13.07.85,21.81,0,0,2.87,2.51,5.42,2.4,0,0,.28,8.64,10,17.56Z" style="fill:#ad6359"></path><path d="M256,140.45c-4.72,3.18-7.3,10.69-3.5,17.83s13.42,6.23,18,3.1,8.45-10.94,4.54-17.6C271.73,138,264.31,134.88,256,140.45Z" style="fill:#F97316"></path><path d="M256,140.45c-4.72,3.18-7.3,10.69-3.5,17.83s13.42,6.23,18,3.1,8.45-10.94,4.54-17.6C271.73,138,264.31,134.88,256,140.45Z" style="opacity:0.1"></path><path d="M257.44,142.32c-3.85,2.59-5.95,8.73-2.85,14.56s11,5.09,14.72,2.53,6.91-8.93,3.72-14.38C270.27,140.31,264.21,137.77,257.44,142.32Z" style="fill:#F97316"></path><path d="M265.5,145.56c.34.27,1.56-.75.89-1.23S265.06,145.22,265.5,145.56Z" style="fill:#fff"></path><path d="M268.35,152.25c-.17.39,1.12,1.32,1.42.55S268.58,151.73,268.35,152.25Z" style="fill:#fff"></path><path d="M271.21,149.65c.07.42,1.66.49,1.49-.32S271.12,149.09,271.21,149.65Z" style="fill:#fff"></path><path d="M265.42,142.63c.42-.07.5-1.65-.31-1.49S264.86,142.72,265.42,142.63Z" style="fill:#fff"></path><path d="M257.81,148.17c.11-.41-1.31-1.13-1.49-.32S257.66,148.72,257.81,148.17Z" style="fill:#fff"></path><path d="M261.21,157c-.35-.25-1.52.82-.83,1.27S261.67,157.34,261.21,157Z" style="fill:#fff"></path><path d="M264,156.47c-.42-.07-1,1.41-.18,1.51S264.56,156.56,264,156.47Z" style="fill:#fff"></path><path d="M261.07,150.21c.3-.3-.58-1.63-1.13-1S260.67,150.61,261.07,150.21Z" style="fill:#fff"></path><path d="M252.51,151.31s7.75-.86,8.77.71-4.49,8.47-5.4,7.86S251.67,153.93,252.51,151.31Z" style="fill:#F97316"></path><path d="M252.51,151.31s7.75-.86,8.77.71-4.49,8.47-5.4,7.86S251.67,153.93,252.51,151.31Z" style="opacity:0.1"></path><path d="M265.76,161.59s-2.29-7.46-.93-8.75,9.15,2.83,8.73,3.84S268.49,161.92,265.76,161.59Z" style="fill:#F97316"></path><path d="M265.76,161.59s-2.29-7.46-.93-8.75,9.15,2.83,8.73,3.84S268.49,161.92,265.76,161.59Z" style="opacity:0.1"></path><path d="M275.63,147.85s-7.58,1.84-8.79.41,3.37-9,4.35-8.48S276.12,145.14,275.63,147.85Z" style="fill:#F97316"></path><path d="M275.63,147.85s-7.58,1.84-8.79.41,3.37-9,4.35-8.48S276.12,145.14,275.63,147.85Z" style="opacity:0.1"></path><path d="M262.78,138.78s1.85,7.58.42,8.79-9-3.37-8.49-4.35S260.08,138.28,262.78,138.78Z" style="fill:#F97316"></path><path d="M262.78,138.78s1.85,7.58.42,8.79-9-3.37-8.49-4.35S260.08,138.28,262.78,138.78Z" style="opacity:0.1"></path><path d="M278.71,151.49c-3.65,1.39-21.12,4.87-21.12,4.87l.34-.83,18.73-5.83A.57.57,0,0,0,277,149a.56.56,0,0,0-.72-.37l-17.51,4.8.55-1.33,19.16-6.26a.58.58,0,1,0-.34-1.1l-17.93,5.22.53-1.27,19.6-6.74a.56.56,0,0,0,.38-.72.55.55,0,0,0-.71-.37l-18.4,5.71.45-1.08s18.44-7.12,20.62-7.54C286.61,137.18,284.24,149.39,278.71,151.49Z" style="fill:#455a64"></path><path d="M282.77,141.39c2.56-1.17,13.07-5.8,14.31-6.28,1.44-.56,52.37-20.37,54.4-20.43s1.11,6.91-.06,8.38S302,137.82,297.14,139.74c-5.09,2-14.66,6-14.66,6Z" style="fill:#455a64"></path><path d="M361.86,149.65c-5.53-4-17.41-12.21-29.47-15.57-13.39-3.73-40.19-7.3-42.84,2.61-1.95,7.27,8.17,9.54,8.17,9.54s-11.39.85-11.71,7.8c-.29,6.34,7.63,7.62,7.63,7.62s-6.82,1.71-5.92,7.87c1.08,7.4,15.19,2.6,22.76,9.16C312.18,180.15,361.86,149.65,361.86,149.65Z" style="fill:#ad6359"></path><path d="M330.81,148.89C325,146,310.09,142.83,297.92,146c-.28.07-.37.32-.11.31a136.3,136.3,0,0,1,33,2.68C330.85,149,330.88,148.92,330.81,148.89Z" style="fill:#263238"></path><path d="M326.66,162.3c-5.28-2-20.79-4.56-33-.9-.28.08-.35.33-.09.31a146.28,146.28,0,0,1,33.07.71C326.7,162.44,326.72,162.32,326.66,162.3Z" style="fill:#263238"></path><path d="M252.2,244.61,303,217.5S252.65,186.82,229.42,178c-24.21-9.23-33.37-2.44-11.57,24.06C239.32,228.12,252.2,244.61,252.2,244.61Z" style="fill:#F97316"></path><path d="M298.83,215a19.08,19.08,0,0,0-2.84,1,16,16,0,0,0-3.79,2.31,15.84,15.84,0,0,0,4.25-1.26,16.13,16.13,0,0,0,3-1.69C299.24,215.26,299,215.13,298.83,215Zm-53.52,7.57a15.29,15.29,0,0,0-3.78,2.31,15.79,15.79,0,0,0,4.24-1.27,15.31,15.31,0,0,0,3.79-2.3A15.15,15.15,0,0,0,245.31,222.57Zm24.06,4.56a15.56,15.56,0,0,0-2.3-3.78,15.59,15.59,0,0,0,1.26,4.25,15.2,15.2,0,0,0,2.3,3.77A15.28,15.28,0,0,0,269.37,227.13ZM226,205.25a15.86,15.86,0,0,0-2.31-3.77,15.64,15.64,0,0,0,1.27,4.24,15.07,15.07,0,0,0,2.3,3.78A15.59,15.59,0,0,0,226,205.25ZM214,184.41a15.38,15.38,0,0,0-4.3-1,15.65,15.65,0,0,0,3.89,2.11,15.82,15.82,0,0,0,4.3,1A15.65,15.65,0,0,0,214,184.41Zm34.93,15a15.46,15.46,0,0,0-4.31-1.05,15.6,15.6,0,0,0,3.9,2.12,15.82,15.82,0,0,0,4.3,1A15.51,15.51,0,0,0,249,199.36ZM236.58,181a14.91,14.91,0,0,0-1,4.15,14.44,14.44,0,0,0,2-3.68Zm34.62,26.24a15.82,15.82,0,0,0-1,4.3,17.09,17.09,0,0,0,3.15-8.19A15.65,15.65,0,0,0,271.2,207.21Z" style="fill:#fff"></path><path d="M251,234c1.13-.78,2.39-1.41,3.58-2.09s2.46-1.39,3.69-2.09c2.5-1.41,5-2.78,7.54-4.14,5-2.71,10.07-5.45,15.16-8.07,1.4-.73,2.8-1.44,4.22-2.13s3-1.34,4.52-2.06a.08.08,0,0,1,.06.14c-1.22.71-2.4,1.53-3.62,2.24s-2.53,1.46-3.8,2.16q-3.76,2.07-7.57,4.07c-5,2.64-10,5.3-15,7.83L255.5,232c-1.47.74-2.93,1.57-4.47,2.17C251,234.2,250.88,234.09,251,234Z" style="fill:#263238"></path><path d="M217.85,202c21.47,26.11,34.35,42.59,34.35,42.59l16.23-8.66-61-60.42C203.22,178.74,205.81,187.37,217.85,202Z" style="fill:#263238"></path><path d="M263.77,344.24l-134.64,8.5S141.6,223,188.45,175.91c5.79-5.81,19.7-5.45,29-1.53,3.33,1.39,15.92,16.85,20.18,32S264.1,343.76,263.77,344.24Z" style="fill:#F97316"></path><path d="M175.24,214a15.74,15.74,0,0,0-3.79,2.3A15.05,15.05,0,0,0,175.7,215a15.31,15.31,0,0,0,3.79-2.3A15.73,15.73,0,0,0,175.24,214Zm66.45,10.8a1,1,0,0,0-.16.13.86.86,0,0,0,.17,0S241.69,224.78,241.69,224.75ZM208,247.22a15.62,15.62,0,0,0-3.79,2.3,15.84,15.84,0,0,0,4.25-1.26,15.49,15.49,0,0,0,3.78-2.3A15.08,15.08,0,0,0,208,247.22ZM193.2,304.16a15.6,15.6,0,0,0-3.78,2.31,15.25,15.25,0,0,0,4.25-1.26,15.79,15.79,0,0,0,3.78-2.31A15.59,15.59,0,0,0,193.2,304.16Zm-33.26-37a16.08,16.08,0,0,0-3.78,2.3,15.25,15.25,0,0,0,4.25-1.26,15.75,15.75,0,0,0,3.78-2.3A15.59,15.59,0,0,0,159.94,267.21Zm-22.73,79.33a15.37,15.37,0,0,0-3.78,2.3,15.25,15.25,0,0,0,4.25-1.26,15.6,15.6,0,0,0,3.78-2.31A15.16,15.16,0,0,0,137.21,346.54Zm59.16-8.61a15.44,15.44,0,0,0-3.78,2.3,15.59,15.59,0,0,0,4.25-1.26,15.92,15.92,0,0,0,3.78-2.31A14.94,14.94,0,0,0,196.37,337.93ZM263,339.22a17.7,17.7,0,0,0-2.76,1,16.21,16.21,0,0,0-3.78,2.3,15.35,15.35,0,0,0,4.25-1.26,19.39,19.39,0,0,0,2.42-1.29C263.07,339.71,263,339.46,263,339.22Zm-30.41-39.07a15.66,15.66,0,0,0-3.79,2.31A15.73,15.73,0,0,0,233,301.2a15.47,15.47,0,0,0,3.79-2.31A15.38,15.38,0,0,0,232.57,300.15ZM187.8,192.29a15.41,15.41,0,0,0-2.31-3.78,15.77,15.77,0,0,0,1.26,4.24,15.47,15.47,0,0,0,2.31,3.79A15.38,15.38,0,0,0,187.8,192.29ZM167.67,344.84a15.43,15.43,0,0,0-2.3-3.79,15.38,15.38,0,0,0,1.26,4.25,15.62,15.62,0,0,0,2.3,3.79A14.73,14.73,0,0,0,167.67,344.84Zm-8.27-37.15a15.58,15.58,0,0,0-2.32-3.77,15.88,15.88,0,0,0,1.26,4.24,15.27,15.27,0,0,0,2.32,3.78A16,16,0,0,0,159.4,307.69Zm49.82-25.52a16.07,16.07,0,0,0-2.3-3.79,15.05,15.05,0,0,0,1.26,4.25,15.31,15.31,0,0,0,2.3,3.79A15.84,15.84,0,0,0,209.22,282.17Zm-21.16-47a15.66,15.66,0,0,0-2.31-3.79,15.05,15.05,0,0,0,1.26,4.25,15.47,15.47,0,0,0,2.31,3.79A15.38,15.38,0,0,0,188.06,235.22Zm31.73,108.16a14.56,14.56,0,0,0,1,3.58l1.2-.08A15.83,15.83,0,0,0,219.79,343.38ZM256.19,313a15.45,15.45,0,0,0-2.32-3.78,16.37,16.37,0,0,0,1.26,4.24,15.72,15.72,0,0,0,2.31,3.78A15.51,15.51,0,0,0,256.19,313ZM226,205.25a15.86,15.86,0,0,0-2.31-3.77,15.64,15.64,0,0,0,1.27,4.24,15.07,15.07,0,0,0,2.3,3.78A15.59,15.59,0,0,0,226,205.25ZM214,184.41a15.38,15.38,0,0,0-4.3-1,15.65,15.65,0,0,0,3.89,2.11,15.82,15.82,0,0,0,4.3,1A15.65,15.65,0,0,0,214,184.41Zm-37.7,103.64A15,15,0,0,0,172,287a15.75,15.75,0,0,0,3.9,2.12,16.1,16.1,0,0,0,4.3,1A15.09,15.09,0,0,0,176.34,288.05Zm-32.6,37.28a15.54,15.54,0,0,0-4.31-1.05,17.07,17.07,0,0,0,8.2,3.15A15.64,15.64,0,0,0,143.74,325.33Zm91.59,3a15.54,15.54,0,0,0-4.31-1.05,17.07,17.07,0,0,0,8.2,3.15A15.79,15.79,0,0,0,235.33,328.33Zm-6.41-55.46a15.12,15.12,0,0,0-4.3-1,15.34,15.34,0,0,0,3.89,2.11,16.12,16.12,0,0,0,4.3,1.05A15.07,15.07,0,0,0,228.92,272.87Zm-12.24-46.64a15,15,0,0,0-4.3-1,15.3,15.3,0,0,0,3.89,2.1,15.48,15.48,0,0,0,4.3,1.05A15,15,0,0,0,216.68,226.23ZM162,242.81a15.12,15.12,0,0,0-1,4.3,17.45,17.45,0,0,0,3.15-8.2A15.09,15.09,0,0,0,162,242.81Zm49.61,74.71a15.13,15.13,0,0,0-1,4.3,15.69,15.69,0,0,0,2.12-3.89,16.2,16.2,0,0,0,1-4.3A15.19,15.19,0,0,0,211.63,317.52Zm23.06-70.17a15.25,15.25,0,0,0-1,4.32,17.16,17.16,0,0,0,3.15-8.21A15.53,15.53,0,0,0,234.69,247.35Zm-56.63,76.29a15.19,15.19,0,0,0-1,4.31,16,16,0,0,0,2.11-3.91,15.73,15.73,0,0,0,1-4.3A15.39,15.39,0,0,0,178.06,323.64Zm-37.42-35.27a15.8,15.8,0,0,0-1,4.31,15.25,15.25,0,0,0,2.11-3.9,15,15,0,0,0,1-4.3A16.17,16.17,0,0,0,140.64,288.37ZM187,264.43a14.86,14.86,0,0,0-1,4.31,17.17,17.17,0,0,0,3.15-8.2A15.19,15.19,0,0,0,187,264.43Zm14.08-55.82a16.36,16.36,0,0,0-1,4.31,15.54,15.54,0,0,0,2.12-3.89,15.89,15.89,0,0,0,1-4.31A15.87,15.87,0,0,0,201.09,208.61Z" style="fill:#fff"></path><path d="M190.4,179.65a46.48,46.48,0,0,0,15.09,18.85,25.43,25.43,0,0,0,11,4.88,10.84,10.84,0,0,0,6.27-.63,12.24,12.24,0,0,0,4.51-4.22,23,23,0,0,0,2.94-6.36,54.74,54.74,0,0,0,1.73-7.71.08.08,0,1,1,.15,0c-.36,2.47-.52,5-1.07,7.4a24.91,24.91,0,0,1-2.2,6.24,14.8,14.8,0,0,1-4,4.88,9.74,9.74,0,0,1-6.22,1.88,23,23,0,0,1-12.1-4.12,40.75,40.75,0,0,1-9.36-8.52,43.14,43.14,0,0,1-7-12.52A.13.13,0,0,1,190.4,179.65Z" style="fill:#263238"></path><path d="M219.8,198.87c-7.88,1.32-20.43-11.42-25.06-21.38-.31-.68,1.15-7.57,2.54-16,.82-5.13,1.62-10.86,2-16.14.07-1.09,32.6,10.22,32.6,10.22s-4,10.86-4.54,20.07a12.89,12.89,0,0,0,.09,2.18,3.53,3.53,0,0,1,0,.36C227.81,182.33,227.42,197.58,219.8,198.87Z" style="fill:#ad6359"></path><path d="M224,178.13a19.61,19.61,0,0,0,3.41,0c0-.14,0-.26,0-.36a11.12,11.12,0,0,1-.08-2.18c.55-9.21,4.52-20.06,4.52-20.06s-26.4-9.19-31.68-10.21C200.78,151.52,204.5,176.41,224,178.13Z" style="fill:#263238"></path><path d="M194.56,109.21C191.1,121,197.71,155,206.17,162.43c12.26,10.85,32.14,11.67,41.31-3,8.89-14.24-.51-58.3-9.94-65.08C223.66,84.33,199.66,91.76,194.56,109.21Z" style="fill:#ad6359"></path><path d="M226.86,129.84c0-.09-.15.14-.13.23.5,2.28.7,5-1.22,6.12-.06,0,0,.15,0,.12C228,135.48,227.71,131.91,226.86,129.84Z" style="fill:#263238"></path><path d="M224.37,127.84c-3.73.42-2.62,7.85.84,7.46S227.5,127.49,224.37,127.84Z" style="fill:#263238"></path><path d="M240.94,127.42c0-.09.2.08.21.17.27,2.32,1,4.92,3.17,5.37.07,0,.08.13,0,.13C241.72,133.12,240.83,129.65,240.94,127.42Z" style="fill:#263238"></path><path d="M242.64,124.7c3.66-.83,5.06,6.55,1.67,7.33S239.57,125.4,242.64,124.7Z" style="fill:#263238"></path><path d="M220.93,124.88a30.78,30.78,0,0,0,2.72-1.45,5,5,0,0,0,2.5-2,1.6,1.6,0,0,0-.53-1.87c-1.27-.82-2.71-.44-4,.19a5.78,5.78,0,0,0-2.93,3A1.7,1.7,0,0,0,220.93,124.88Z" style="fill:#263238"></path><path d="M245,120.53a29,29,0,0,1-3.07-.32,5,5,0,0,1-3.06-.93,1.58,1.58,0,0,1-.2-1.93c.87-1.23,2.35-1.42,3.77-1.32a5.87,5.87,0,0,1,3.83,1.67A1.7,1.7,0,0,1,245,120.53Z" style="fill:#263238"></path><path d="M228,150.75c.63.45,1.3,1.11,2.14,1.06a6.19,6.19,0,0,0,2.39-.95.08.08,0,0,1,.12.1,3.13,3.13,0,0,1-2.74,1.69,2.47,2.47,0,0,1-2.11-1.77C227.73,150.76,227.9,150.68,228,150.75Z" style="fill:#263238"></path><path d="M229.38,143.49a7.92,7.92,0,0,0,5.76,2.71,10.17,10.17,0,0,0,2.84-.3,2.83,2.83,0,0,0,.52-.14c.17,0,.32-.09.5-.15a.58.58,0,0,0,.38-.59h0a.86.86,0,0,0-.06-.23v0l0-.2c-.22-1.78-.8-4.45-.8-4.45.7.22,4.22,1.22,4,.3-1.6-7.6-3.38-16-6.59-23.27a.21.21,0,0,0-.41.12c1.25,7.36,3.79,14.46,5.17,21.83a14.22,14.22,0,0,0-3.87-.57c-.24.11,1.21,5.14,1.24,5.95a.21.21,0,0,1,0,.09c-2.92.82-5.3.26-8.49-1.31C229.37,143.15,229.22,143.33,229.38,143.49Z" style="fill:#263238"></path><path d="M236.8,145.16a9.46,9.46,0,0,1-3.3,3.45,4.21,4.21,0,0,1-2.52.53c-1.91-.2-2.2-1.88-2.08-3.38a9.79,9.79,0,0,1,.49-2.33A12.18,12.18,0,0,0,236.8,145.16Z" style="fill:#263238"></path><path d="M233.5,148.61a4.21,4.21,0,0,1-2.52.53c-1.91-.2-2.2-1.88-2.08-3.38C230.9,145.67,233.05,146.71,233.5,148.61Z" style="fill:#ff97b8"></path><path d="M233,102.34a12.71,12.71,0,0,1-10.18,7c-4.27.36-9.05-1.46-11.52-5.07-.07-.11-.24,0-.17.11,2.64,3.86,7,6.5,11.76,6a13.07,13.07,0,0,0,10.39-7.85C233.34,102.29,233.08,102.16,233,102.34Z" style="fill:#263238"></path><path d="M214.65,78.75c-5.45-.2-10.51,3.57-12.57,8.49a18.63,18.63,0,0,0-1.16,9.29.1.1,0,0,0,.2,0c-.24-5,1.66-10.64,5.66-13.88A11.45,11.45,0,0,1,220,81.35a11.59,11.59,0,0,1,5,5.88.23.23,0,0,0,.43-.15A11.83,11.83,0,0,0,214.65,78.75Z" style="fill:#263238"></path><path d="M256,81.71a15.31,15.31,0,0,0-8.32-6.4c-4.77-1.52-9.35,0-13.87,1.65-.12,0-.05.23.07.19,3.85-1.37,7.83-2.54,11.93-1.59A15,15,0,0,1,254.3,81a14.65,14.65,0,0,1-1.47,19.14,14.91,14.91,0,0,1-11.11,4c-.16,0-.22.23-.05.24A15,15,0,0,0,256,81.71Z" style="fill:#263238"></path><path d="M193.87,112.24s-1.72-10.08.16-13.72,7.41-5.66,7.41-5.66,1.39-9.2,9.29-11.61c7.09-2.16,13.44,3.07,13.44,3.07s7.68-12.22,20.39-9.22c12.06,2.83,14.5,19.64,5.24,27.33-6.5,5.4-18.13,1.32-18.13,1.32-.93.37-9.35,8.73-19,1.75,0,0-5.52,6.84-10.27,4C202.43,109.54,197.81,113.21,193.87,112.24Z" style="fill:#263238"></path><path d="M199.39,100.31c.81,5.17,3,19.92,1.85,23.53s-3.63,12.92-5.28,13.92c-2.33-11-3.15-22.59-1.4-28.55A24.29,24.29,0,0,1,199.39,100.31Z" style="fill:#263238;opacity:0.2"></path><path d="M200.6,136.5s-8-10.74-12.93-7.85,1.38,18.65,7.31,20.64a5.94,5.94,0,0,0,7.87-3.45Z" style="fill:#ad6359"></path><path d="M189.58,133.12a.08.08,0,0,0,0,.16c4.15,1.53,6.44,5.27,8.07,9.17-1.26-1.48-2.95-2.26-4.94-.74-.11.08,0,.24.12.21a3.67,3.67,0,0,1,4.07,1.15,18,18,0,0,1,2,3.2c.2.36.86.15.71-.27a1,1,0,0,1,0-.1C199.52,140.67,195.22,133.47,189.58,133.12Z" style="fill:#263238"></path><path d="M285.32,254.21c-5.33,1-3.91-6.05-8.85-6.51s-6.42,5-9.46,4.22-.86-6.23-6.91-6.28-7.43,8.28-11.09,10.2-11.53-1.34-12.47,5.33,12.57,8.89,22.27,13.56S279,286.5,287.75,286c9.38-.59,13.46-6.7,20.64-7.67s23.68,3.47,30.71-2.82,18.38-11.36,18.55-18.18-8.79-3.82-11.66-4.15-2.6-7.86-8.12-8.91-6.88,2.37-11.68,2.71-6.86-9-13.59-7.32-5,5.48-7.91,7.14-8.57-2.11-12.5-.38S290.07,253.36,285.32,254.21Z" style="fill:#455a64"></path><path d="M307.07,258.68c5.56.27,3.22-6.51,8.2-7.6s7.18,4.15,10.19,3,.08-6.28,6.24-7.11,8.63,7.28,12.61,8.71,11.59-2.8,13.41,3.7-11.7,10.42-21,16.29-19.09,14.25-28.09,14.82c-9.64.61-14.59-4.94-22-5s-23.72,6.46-31.69,1.11-20.18-8.92-21.23-15.66,8.48-4.92,11.36-5.61,1.66-8.13,7.15-9.87,7.32,1.47,12.26,1.2,5.85-9.78,12.93-9,5.78,4.8,9,6.07,8.48-3.18,12.7-2S302.12,258.44,307.07,258.68Z" style="fill:#37474f"></path><path d="M246.09,258.35c-4.72,3.18-7.3,10.69-3.5,17.83s13.42,6.23,18,3.1,8.45-10.94,4.54-17.6C261.78,255.9,254.36,252.78,246.09,258.35Z" style="fill:#F97316"></path><path d="M246.09,258.35c-4.72,3.18-7.3,10.69-3.5,17.83s13.42,6.23,18,3.1,8.45-10.94,4.54-17.6C261.78,255.9,254.36,252.78,246.09,258.35Z" style="opacity:0.1"></path><path d="M247.49,260.22c-3.85,2.59-6,8.73-2.85,14.56s11,5.09,14.72,2.53,6.91-8.93,3.72-14.38C260.32,258.21,254.26,255.67,247.49,260.22Z" style="fill:#F97316"></path><path d="M255.55,263.46c.34.27,1.56-.75.89-1.23S255.11,263.12,255.55,263.46Z" style="fill:#fff"></path><path d="M258.4,270.15c-.17.39,1.12,1.32,1.42.55S258.63,269.63,258.4,270.15Z" style="fill:#fff"></path><path d="M261.26,267.55c.07.42,1.66.49,1.49-.32S261.17,267,261.26,267.55Z" style="fill:#fff"></path><path d="M255.47,260.53c.42-.07.5-1.65-.31-1.49S254.91,260.62,255.47,260.53Z" style="fill:#fff"></path><path d="M247.86,266.07c.11-.41-1.31-1.13-1.49-.32S247.71,266.62,247.86,266.07Z" style="fill:#fff"></path><path d="M251.26,274.91c-.35-.25-1.52.82-.83,1.27S251.72,275.24,251.26,274.91Z" style="fill:#fff"></path><path d="M254.05,274.37c-.42-.07-1,1.41-.18,1.51S254.61,274.46,254.05,274.37Z" style="fill:#fff"></path><path d="M251.12,268.11c.3-.3-.58-1.63-1.13-1S250.72,268.51,251.12,268.11Z" style="fill:#fff"></path><path d="M242.56,269.21s7.75-.86,8.77.71-4.49,8.47-5.4,7.86S241.72,271.83,242.56,269.21Z" style="fill:#F97316"></path><path d="M242.56,269.21s7.75-.86,8.77.71-4.49,8.47-5.4,7.86S241.72,271.83,242.56,269.21Z" style="opacity:0.1"></path><path d="M255.81,279.49s-2.29-7.46-.93-8.75,9.15,2.83,8.73,3.84S258.54,279.82,255.81,279.49Z" style="fill:#F97316"></path><path d="M255.81,279.49s-2.29-7.46-.93-8.75,9.15,2.83,8.73,3.84S258.54,279.82,255.81,279.49Z" style="opacity:0.1"></path><path d="M265.68,265.75s-7.58,1.84-8.79.41,3.37-9,4.35-8.48S266.17,263,265.68,265.75Z" style="fill:#F97316"></path><path d="M265.68,265.75s-7.58,1.84-8.79.41,3.37-9,4.35-8.48S266.17,263,265.68,265.75Z" style="opacity:0.1"></path><path d="M252.83,256.68s1.85,7.58.42,8.79-9-3.37-8.49-4.35S250.13,256.18,252.83,256.68Z" style="fill:#F97316"></path><path d="M252.83,256.68s1.85,7.58.42,8.79-9-3.37-8.49-4.35S250.13,256.18,252.83,256.68Z" style="opacity:0.1"></path><path d="M286.78,240.74c-5.56-1.22-12.77,2.1-15.31,9.78s4.76,14,10.21,15.18,13.74-1.44,15.87-8.87C299.39,250.4,296.52,242.88,286.78,240.74Z" style="fill:#F97316"></path><path d="M286.78,240.74c-5.56-1.22-12.77,2.1-15.31,9.78s4.76,14,10.21,15.18,13.74-1.44,15.87-8.87C299.39,250.4,296.52,242.88,286.78,240.74Z" style="opacity:0.1"></path><path d="M286.4,243c-4.53-1-10.42,1.72-12.5,8s3.89,11.45,8.34,12.4,11.23-1.17,13-7.24C296.71,250.93,294.36,244.79,286.4,243Z" style="fill:#F97316"></path><path d="M289.62,251.11c0,.43,1.62.61,1.51-.21S289.56,250.55,289.62,251.11Z" style="fill:#fff"></path><path d="M286.76,257.79c-.41.15-.19,1.72.57,1.41S287.28,257.6,286.76,257.79Z" style="fill:#fff"></path><path d="M290.61,258.06c-.26.35.78,1.54,1.25.86S290.94,257.61,290.61,258.06Z" style="fill:#fff"></path><path d="M291.68,249c.34.27,1.55-.77.87-1.24S291.23,248.68,291.68,249Z" style="fill:#fff"></path><path d="M282.42,247.35c.38-.21-.09-1.73-.79-1.3S281.93,247.62,282.42,247.35Z" style="fill:#fff"></path><path d="M278.38,255.92c-.06-.43-1.65-.54-1.5.27S278.45,256.47,278.38,255.92Z" style="fill:#fff"></path><path d="M280.69,257.56c-.24-.36-1.71.25-1.22.91S281,258,280.69,257.56Z" style="fill:#fff"></path><path d="M283.19,251.12c.43,0,.78-1.55,0-1.53S282.63,251.11,283.19,251.12Z" style="fill:#fff"></path><path d="M276.49,245.68s6,5,5.55,6.84-9.23,2.6-9.42,1.52S274,246.89,276.49,245.68Z" style="fill:#F97316"></path><path d="M276.49,245.68s6,5,5.55,6.84-9.23,2.6-9.42,1.52S274,246.89,276.49,245.68Z" style="opacity:0.1"></path><path d="M278.21,262.37s3.81-6.81,5.68-6.72,4.27,8.58,3.25,9S279.85,264.58,278.21,262.37Z" style="fill:#F97316"></path><path d="M278.21,262.37s3.81-6.81,5.68-6.72,4.27,8.58,3.25,9S279.85,264.58,278.21,262.37Z" style="opacity:0.1"></path><path d="M295,260s-6.57-4.22-6.37-6.08,8.82-3.75,9.14-2.71S297.26,258.51,295,260Z" style="fill:#F97316"></path><path d="M295,260s-6.57-4.22-6.37-6.08,8.82-3.75,9.14-2.71S297.26,258.51,295,260Z" style="opacity:0.1"></path><path d="M292.65,244.46s-4.21,6.57-6.07,6.37-3.75-8.81-2.71-9.14S291.14,242.16,292.65,244.46Z" style="fill:#F97316"></path><path d="M292.65,244.46s-4.21,6.57-6.07,6.37-3.75-8.81-2.71-9.14S291.14,242.16,292.65,244.46Z" style="opacity:0.1"></path><path d="M302.46,277.36c4.19,3.85,12.09,4.6,18.15-.76s2.92-14.51-1.2-18.25-12.61-5.66-18.18-.31C296.41,262.68,295.11,270.62,302.46,277.36Z" style="fill:#F97316"></path><path d="M302.46,277.36c4.19,3.85,12.09,4.6,18.15-.76s2.92-14.51-1.2-18.25-12.61-5.66-18.18-.31C296.41,262.68,295.11,270.62,302.46,277.36Z" style="opacity:0.1"></path><path d="M303.94,275.56c3.42,3.14,9.88,3.75,14.83-.62s2.39-11.85-1-14.92-10.3-4.62-14.85-.25C299,263.56,297.94,270.05,303.94,275.56Z" style="fill:#F97316"></path><path d="M305.22,267c.18-.39-1.1-1.34-1.41-.58S305,267.48,305.22,267Z" style="fill:#fff"></path><path d="M311.05,262.63c.42.08,1-1.39.2-1.51S310.49,262.53,311.05,262.63Z" style="fill:#fff"></path><path d="M307.85,260.46c.4-.16.1-1.72-.65-1.37S307.34,260.68,307.85,260.46Z" style="fill:#fff"></path><path d="M302.38,267.74c-.16-.4-1.72-.11-1.38.64S302.6,268.25,302.38,267.74Z" style="fill:#fff"></path><path d="M309.55,273.84c-.43,0-.79,1.53,0,1.52S310.11,273.85,309.55,273.84Z" style="fill:#fff"></path><path d="M317.35,268.46c-.16.4,1.15,1.29,1.43.52S317.56,267.94,317.35,268.46Z" style="fill:#fff"></path><path d="M316.17,265.88c0,.43,1.61.64,1.51-.18S316.13,265.32,316.17,265.88Z" style="fill:#fff"></path><path d="M310.77,270.19c-.37-.22-1.45.95-.72,1.34S311.26,270.48,310.77,270.19Z" style="fill:#fff"></path><path d="M313.84,278.26s-2.65-7.34-1.36-8.7,9.28,2.39,8.91,3.41S316.59,278.46,313.84,278.26Z" style="fill:#F97316"></path><path d="M313.84,278.26s-2.65-7.34-1.36-8.7,9.28,2.39,8.91,3.41S316.59,278.46,313.84,278.26Z" style="opacity:0.1"></path><path d="M320.74,263s-6.72,4-8.29,2.95.61-9.56,1.69-9.38S320.42,260.23,320.74,263Z" style="fill:#F97316"></path><path d="M320.74,263s-6.72,4-8.29,2.95.61-9.56,1.69-9.38S320.42,260.23,320.74,263Z" style="opacity:0.1"></path><path d="M305.07,256.59s3.56,6.94,2.46,8.45-9.51-1.19-9.27-2.25S302.33,256.74,305.07,256.59Z" style="fill:#F97316"></path><path d="M305.07,256.59s3.56,6.94,2.46,8.45-9.51-1.19-9.27-2.25S302.33,256.74,305.07,256.59Z" style="opacity:0.1"></path><path d="M299.25,271.19s6.95-3.56,8.46-2.45-1.19,9.51-2.26,9.27S299.4,273.94,299.25,271.19Z" style="fill:#F97316"></path><path d="M299.25,271.19s6.95-3.56,8.46-2.45-1.19,9.51-2.26,9.27S299.4,273.94,299.25,271.19Z" style="opacity:0.1"></path><path d="M333,264.79c4.19,3.85,12.09,4.59,18.15-.77s2.92-14.5-1.2-18.25-12.61-5.66-18.18-.31C327,250.1,325.65,258,333,264.79Z" style="fill:#F97316"></path><path d="M333,264.79c4.19,3.85,12.09,4.59,18.15-.77s2.92-14.5-1.2-18.25-12.61-5.66-18.18-.31C327,250.1,325.65,258,333,264.79Z" style="opacity:0.1"></path><path d="M334.48,263c3.42,3.14,9.88,3.75,14.83-.63s2.39-11.85-1-14.91-10.3-4.63-14.85-.25C329.54,251,328.48,257.47,334.48,263Z" style="fill:#F97316"></path><path d="M335.76,254.39c.18-.39-1.1-1.33-1.41-.57S335.52,254.9,335.76,254.39Z" style="fill:#fff"></path><path d="M341.59,250.06c.42.07,1-1.4.2-1.51S341,250,341.59,250.06Z" style="fill:#fff"></path><path d="M338.39,247.89c.4-.17.1-1.73-.65-1.38S337.88,248.11,338.39,247.89Z" style="fill:#fff"></path><path d="M332.92,255.16c-.16-.4-1.72-.1-1.38.64S333.14,255.68,332.92,255.16Z" style="fill:#fff"></path><path d="M340.09,261.26c-.43,0-.79,1.54,0,1.52S340.65,261.28,340.09,261.26Z" style="fill:#fff"></path><path d="M347.89,255.89c-.16.4,1.15,1.29,1.43.51S348.1,255.37,347.89,255.89Z" style="fill:#fff"></path><path d="M346.71,253.3c0,.43,1.61.64,1.51-.17S346.67,252.74,346.71,253.3Z" style="fill:#fff"></path><path d="M341.31,257.62c-.37-.22-1.45.94-.72,1.34S341.8,257.91,341.31,257.62Z" style="fill:#fff"></path><path d="M344.38,265.68s-2.65-7.34-1.36-8.69,9.28,2.38,8.91,3.41S347.13,265.88,344.38,265.68Z" style="fill:#F97316"></path><path d="M344.38,265.68s-2.65-7.34-1.36-8.69,9.28,2.38,8.91,3.41S347.13,265.88,344.38,265.68Z" style="opacity:0.1"></path><path d="M351.28,250.39s-6.72,4-8.29,3,.61-9.56,1.69-9.39S351,247.66,351.28,250.39Z" style="fill:#F97316"></path><path d="M351.28,250.39s-6.72,4-8.29,3,.61-9.56,1.69-9.39S351,247.66,351.28,250.39Z" style="opacity:0.1"></path><path d="M335.61,244s3.56,6.94,2.46,8.45-9.51-1.18-9.27-2.25S332.87,244.16,335.61,244Z" style="fill:#F97316"></path><path d="M335.61,244s3.56,6.94,2.46,8.45-9.51-1.18-9.27-2.25S332.87,244.16,335.61,244Z" style="opacity:0.1"></path><path d="M329.79,258.62s6.95-3.56,8.46-2.46-1.19,9.51-2.26,9.27S329.94,261.37,329.79,258.62Z" style="fill:#F97316"></path><path d="M329.79,258.62s6.95-3.56,8.46-2.46-1.19,9.51-2.26,9.27S329.94,261.37,329.79,258.62Z" style="opacity:0.1"></path><polygon points="231.01 271.43 260.29 311.32 336.75 306.5 360.79 263.25 231.01 271.43" style="fill:#ebebeb"></polygon><path d="M169.93,204.82C151.64,253.49,136.68,306.51,148,317.09c9.14,8.53,85.05,21,101.66,19.87,7.06-.46,14.23-55,2-56.91-3.48-.54-58-1.79-58.54-3-1.79-3.74-.36-30.18.31-61.69C194.27,174.86,177.67,184.22,169.93,204.82Z" style="fill:#ad6359"></path><path d="M245.9,336.5c19.77,2.34,44.24,6.46,64.81-2.57a11.15,11.15,0,0,0,5.46-4.82c9.29-3.88,10.25-9.44,10.25-9.44,7.54-6.27,7.74-12.08,7.74-12.08s10.85-4.68,9.11-11.71c-1.93-7.9-16.8.22-27.7-.31-25-1.23-63.86-10.17-71-11.24Z" style="fill:#ad6359"></path><path d="M288.51,312.65c7.36.21,14.59.62,21.94-.17,8.07-.86,15.69-3,23.5-5.06a.19.19,0,0,1,.12.37c-13.56,5.9-31,7.63-45.58,5.19C288.14,312.93,288.14,312.64,288.51,312.65Z" style="fill:#263238"></path><path d="M285.58,327.63c7.17-.19,19.78-.6,40.79-8.22.07,0,.13.08.06.12-13,6.76-26.35,9.27-40.84,8.44C285.14,327.94,285.1,327.64,285.58,327.63Z" style="fill:#263238"></path><path d="M284.15,335.7c12.19-.78,19.77-2.82,32-6.66.06,0,.12.09.05.12-13.43,5.83-19,6.42-32.08,7C283.67,336.14,283.67,335.73,284.15,335.7Z" style="fill:#263238"></path><path d="M285.55,292.18c-3.19-1.45-2.46-3.13,3.6-4.61s31.26-2.21,30.26-11-36.16-5.58-46.44-4a71.08,71.08,0,0,0-29.86,12.55C250.09,286.22,271.88,289.88,285.55,292.18Z" style="fill:#ad6359"></path><path d="M194.65,265.4l-53.19,11.84s18.19-56.05,30-77.91C183.86,176.55,195.24,175.74,196,210,196.67,243.84,194.65,265.4,194.65,265.4Z" style="fill:#F97316"></path><path d="M148.31,266.75c1.3-.44,2.68-.7,4-1l4.12-1c2.79-.67,5.59-1.29,8.39-1.9,5.59-1.21,11.19-2.45,16.8-3.57,1.55-.3,3.09-.61,4.64-.87s3.29-.45,4.92-.73c.1,0,.11.13,0,.15-1.38.34-2.73.8-4.11,1.15s-2.82.7-4.24,1q-4.2.94-8.4,1.83c-5.52,1.15-11,2.33-16.58,3.36l-4.65.86c-1.61.3-3.25.7-4.89.85C148.26,266.9,148.22,266.78,148.31,266.75Z" style="fill:#263238"></path><path d="M153.58,245.07c1.28-3.61,2.45-7.24,3.68-10.86,1.39-4.11,2.65-8.26,4-12.39,0-.1-.15-.16-.19-.06-1.67,4.4-7.36,19.06-8.26,21.55-2.63,7.25-5.26,14.5-7.83,21.77-1.44,4.08-3,8.79-4.42,12.87-.1.3,4.17-.86,6.41-1.53.12,0,.2-.45.05-.41-2.12.48-5,.79-5.32.87,2.73-6.9,5.35-13.85,7.92-20.82Q151.63,250.58,153.58,245.07Z" style="fill:#263238"></path><path d="M196.35,239.15a16.08,16.08,0,0,0,1.1-6.2,0,0,0,0,0-.07,0,33.5,33.5,0,0,1-1,5.55c0-.77,0-1.54,0-2.31,0-2.79,0-5.58-.1-8.36,0,0-.08,0-.08,0-.34,4.86-.46,9.73-.69,14.59s-.43,9.86-.63,14.79c-.11,2.68-.23,5.37-.28,8.06-.85.27-1.54.39-2.29.63-.2.06-.14.42.09.38a15,15,0,0,0,2.88-.68C196.12,256.81,196.3,248,196.35,239.15Z" style="fill:#263238"></path><path d="M187,264.43a17.73,17.73,0,0,0-.85,2.86l.87-.19h0a22,22,0,0,0,1.05-2.25,16.1,16.1,0,0,0,1-4.3A15.19,15.19,0,0,0,187,264.43Zm-25-21.62a15.12,15.12,0,0,0-1,4.3,17.45,17.45,0,0,0,3.15-8.2A15.09,15.09,0,0,0,162,242.81Zm26-7.59a15.66,15.66,0,0,0-2.31-3.79,15.05,15.05,0,0,0,1.26,4.25,15.47,15.47,0,0,0,2.31,3.79A15.38,15.38,0,0,0,188.06,235.22Zm-.26-42.93a15.41,15.41,0,0,0-2.31-3.78,15.77,15.77,0,0,0,1.26,4.24,15.47,15.47,0,0,0,2.31,3.79A15.38,15.38,0,0,0,187.8,192.29Zm-27.86,74.92a16.08,16.08,0,0,0-3.78,2.3,15.25,15.25,0,0,0,4.25-1.26,15.75,15.75,0,0,0,3.78-2.3A15.59,15.59,0,0,0,159.94,267.21ZM175.24,214a15.74,15.74,0,0,0-3.79,2.3A15.05,15.05,0,0,0,175.7,215a15.31,15.31,0,0,0,3.79-2.3A15.73,15.73,0,0,0,175.24,214Z" style="fill:#fff"></path></g></svg>
