<svg xmlns="http://www.w3.org/2000/svg" viewBox="0 0 500 500"><g id="freepik--Character--inject-99"><rect x="144.16" y="81.75" width="6" height="102.78" transform="translate(-15.29 19.15) rotate(-7.08)" style="fill:#828282;stroke:#263238;stroke-miterlimit:10"></rect><rect x="181.49" y="83.42" width="6" height="93.45" transform="translate(-6.27 9.38) rotate(-2.86)" style="fill:#828282;stroke:#263238;stroke-miterlimit:10"></rect><rect x="221.16" y="84.14" width="6" height="88.67" style="fill:#828282;stroke:#263238;stroke-miterlimit:10"></rect><rect x="220.12" y="124.14" width="84.73" height="6" transform="translate(125.11 384.43) rotate(-87.74)" style="fill:#828282;stroke:#263238;stroke-miterlimit:10"></rect><rect x="257.36" y="125.14" width="86.92" height="6" transform="matrix(0.08, -1, 1, 0.08, 149.99, 418.26)" style="fill:#828282;stroke:#263238;stroke-miterlimit:10"></rect><rect x="287.95" y="125.81" width="91.74" height="6" transform="translate(155.56 439.06) rotate(-81.22)" style="fill:#828282;stroke:#263238;stroke-miterlimit:10"></rect><rect x="319.91" y="128.48" width="96.49" height="6" transform="translate(167.92 467.23) rotate(-78.84)" style="fill:#828282;stroke:#263238;stroke-miterlimit:10"></rect><rect x="105.49" y="79.48" width="298" height="5.33" style="fill:#828282;stroke:#263238;stroke-miterlimit:10"></rect><path d="M101.37,69.39l18.79,112.75,6.66-2L108.07,68.27a3.4,3.4,0,0,0-4-2.77h0A3.39,3.39,0,0,0,101.37,69.39Z" style="fill:#828282;stroke:#263238;stroke-miterlimit:10"></path><circle cx="102.16" cy="58.14" r="6" style="fill:#828282;stroke:#263238;stroke-miterlimit:10"></circle><path d="M409.7,69.39,390.91,182.14l-6.67-2L403,68.27a3.4,3.4,0,0,1,4-2.77h0A3.39,3.39,0,0,1,409.7,69.39Z" style="fill:#828282;stroke:#263238;stroke-miterlimit:10"></path><circle cx="408.91" cy="58.14" r="6" style="fill:#828282;stroke:#263238;stroke-miterlimit:10"></circle><path d="M180.16,166.81s-43.34,2.67-55.34,5.33-15.33,12.67-17.33,27.34-4.67,178-4.67,178,30.67-14,80-20,110-11.34,131.34-8,40,6.66,62.66,16.66,30.67,14,30.67,14-.67-168-3.33-184-18.67-23.33-35.34-24.66-94.66-5.34-123.33-5.34S180.16,166.81,180.16,166.81Z" style="fill:#757575;stroke:#263238;stroke-miterlimit:10"></path><path d="M139.41,204.49,127.1,217.21l12.31,12.72,12.3-12.72Zm-4.61,12.72,4.61-4.76,4.6,4.76-4.6,4.76Z" style="fill:#828282"></path><path d="M139.41,177.52,127.1,190.23,139.41,203l12.3-12.72Zm-4.61,12.71,4.61-4.76,4.6,4.76-4.6,4.76Z" style="fill:#828282"></path><path d="M138.66,203.72,126.36,191l-12.31,12.71,12.31,12.72ZM126.36,199l4.6,4.76-4.6,4.76-4.61-4.76Z" style="fill:#bfbfbf"></path><path d="M164.76,203.72,152.46,191l-12.31,12.71,12.31,12.72ZM152.46,199l4.6,4.76-4.6,4.76-4.61-4.76Z" style="fill:#bfbfbf"></path><path d="M139.41,262.21,127.1,274.92l12.31,12.72,12.3-12.72Zm-4.61,12.71,4.61-4.76,4.6,4.76-4.6,4.76Z" style="fill:#828282"></path><path d="M139.41,235.23,127.1,248l12.31,12.72L151.71,248ZM134.8,248l4.61-4.76L144,248l-4.6,4.76Z" style="fill:#828282"></path><path d="M138.66,261.44l-12.3-12.72-12.31,12.72,12.31,12.71Zm-12.3-4.76,4.6,4.76-4.6,4.76-4.61-4.76Z" style="fill:#bfbfbf"></path><path d="M164.76,261.44l-12.3-12.72-12.31,12.72,12.31,12.71Zm-12.3-4.76,4.6,4.76-4.6,4.76-4.61-4.76Z" style="fill:#bfbfbf"></path><path d="M139.41,319.92,127.1,332.64l12.31,12.72,12.3-12.72Zm-4.61,12.72,4.61-4.76,4.6,4.76-4.6,4.76Z" style="fill:#828282"></path><path d="M139.41,293,127.1,305.66l12.31,12.72,12.3-12.72Zm-4.61,12.71,4.61-4.76,4.6,4.76-4.6,4.76Z" style="fill:#828282"></path><path d="M138.66,319.15l-12.3-12.71-12.31,12.71,12.31,12.72Zm-12.3-4.76,4.6,4.76-4.6,4.76-4.61-4.76Z" style="fill:#bfbfbf"></path><path d="M164.76,319.15l-12.3-12.71-12.31,12.71,12.31,12.72Zm-12.3-4.76,4.6,4.76-4.6,4.76-4.61-4.76Z" style="fill:#bfbfbf"></path><path d="M198.46,204.49l-12.31,12.72,12.31,12.72,12.3-12.72Zm-4.61,12.72,4.61-4.76,4.6,4.76-4.6,4.76Z" style="fill:#828282"></path><path d="M198.46,177.52l-12.31,12.71L198.46,203l12.3-12.72Zm-4.61,12.71,4.61-4.76,4.6,4.76-4.6,4.76Z" style="fill:#828282"></path><path d="M197.71,203.72,185.41,191,173.1,203.72l12.31,12.72ZM185.41,199l4.6,4.76-4.6,4.76-4.61-4.76Z" style="fill:#bfbfbf"></path><path d="M223.81,203.72,211.51,191,199.2,203.72l12.31,12.72ZM211.51,199l4.6,4.76-4.6,4.76-4.61-4.76Z" style="fill:#bfbfbf"></path><path d="M198.46,262.21l-12.31,12.71,12.31,12.72,12.3-12.72Zm-4.61,12.71,4.61-4.76,4.6,4.76-4.6,4.76Z" style="fill:#828282"></path><path d="M198.46,235.23,186.15,248l12.31,12.72L210.76,248ZM193.85,248l4.61-4.76,4.6,4.76-4.6,4.76Z" style="fill:#828282"></path><path d="M197.71,261.44l-12.3-12.72L173.1,261.44l12.31,12.71Zm-12.3-4.76,4.6,4.76-4.6,4.76-4.61-4.76Z" style="fill:#bfbfbf"></path><path d="M223.81,261.44l-12.3-12.72L199.2,261.44l12.31,12.71Zm-12.3-4.76,4.6,4.76-4.6,4.76-4.61-4.76Z" style="fill:#bfbfbf"></path><path d="M198.46,319.92l-12.31,12.72,12.31,12.72,12.3-12.72Zm-4.61,12.72,4.61-4.76,4.6,4.76-4.6,4.76Z" style="fill:#828282"></path><path d="M198.46,293l-12.31,12.71,12.31,12.72,12.3-12.72Zm-4.61,12.71,4.61-4.76,4.6,4.76-4.6,4.76Z" style="fill:#828282"></path><path d="M197.71,319.15l-12.3-12.71L173.1,319.15l12.31,12.72Zm-12.3-4.76,4.6,4.76-4.6,4.76-4.61-4.76Z" style="fill:#bfbfbf"></path><path d="M223.81,319.15l-12.3-12.71L199.2,319.15l12.31,12.72Zm-12.3-4.76,4.6,4.76-4.6,4.76-4.61-4.76Z" style="fill:#bfbfbf"></path><path d="M257.51,204.49l-12.3,12.72,12.3,12.72,12.3-12.72Zm-4.6,12.72,4.6-4.76,4.61,4.76L257.51,222Z" style="fill:#828282"></path><path d="M257.51,177.52l-12.3,12.71L257.51,203l12.3-12.72Zm-4.6,12.71,4.6-4.76,4.61,4.76L257.51,195Z" style="fill:#828282"></path><path d="M256.76,203.72,244.46,191l-12.3,12.71,12.3,12.72ZM244.46,199l4.61,4.76-4.61,4.76-4.61-4.76Z" style="fill:#bfbfbf"></path><path d="M282.86,203.72,270.56,191l-12.3,12.71,12.3,12.72ZM270.56,199l4.61,4.76-4.61,4.76-4.6-4.76Z" style="fill:#bfbfbf"></path><path d="M257.51,262.21l-12.3,12.71,12.3,12.72,12.3-12.72Zm-4.6,12.71,4.6-4.76,4.61,4.76-4.61,4.76Z" style="fill:#828282"></path><path d="M257.51,235.23,245.21,248l12.3,12.72L269.81,248ZM252.91,248l4.6-4.76,4.61,4.76-4.61,4.76Z" style="fill:#828282"></path><path d="M256.76,261.44l-12.3-12.72-12.3,12.72,12.3,12.71Zm-12.3-4.76,4.61,4.76-4.61,4.76-4.61-4.76Z" style="fill:#bfbfbf"></path><path d="M282.86,261.44l-12.3-12.72-12.3,12.72,12.3,12.71Zm-12.3-4.76,4.61,4.76-4.61,4.76-4.6-4.76Z" style="fill:#bfbfbf"></path><path d="M257.51,319.92l-12.3,12.72,12.3,12.72,12.3-12.72Zm-4.6,12.72,4.6-4.76,4.61,4.76-4.61,4.76Z" style="fill:#828282"></path><path d="M257.51,293l-12.3,12.71,12.3,12.72,12.3-12.72Zm-4.6,12.71,4.6-4.76,4.61,4.76-4.61,4.76Z" style="fill:#828282"></path><path d="M256.76,319.15l-12.3-12.71-12.3,12.71,12.3,12.72Zm-12.3-4.76,4.61,4.76-4.61,4.76-4.61-4.76Z" style="fill:#bfbfbf"></path><path d="M282.86,319.15l-12.3-12.71-12.3,12.71,12.3,12.72Zm-12.3-4.76,4.61,4.76-4.61,4.76-4.6-4.76Z" style="fill:#bfbfbf"></path><path d="M316.56,204.49l-12.3,12.72,12.3,12.72,12.31-12.72ZM312,217.21l4.6-4.76,4.61,4.76L316.56,222Z" style="fill:#828282"></path><path d="M316.56,177.52l-12.3,12.71L316.56,203l12.31-12.72ZM312,190.23l4.6-4.76,4.61,4.76L316.56,195Z" style="fill:#828282"></path><path d="M315.82,203.72,303.51,191l-12.3,12.71,12.3,12.72ZM303.51,199l4.61,4.76-4.61,4.76-4.6-4.76Z" style="fill:#bfbfbf"></path><path d="M341.92,203.72,329.61,191l-12.3,12.71,12.3,12.72ZM329.61,199l4.61,4.76-4.61,4.76-4.6-4.76Z" style="fill:#bfbfbf"></path><path d="M316.56,262.21l-12.3,12.71,12.3,12.72,12.31-12.72ZM312,274.92l4.6-4.76,4.61,4.76-4.61,4.76Z" style="fill:#828282"></path><path d="M316.56,235.23,304.26,248l12.3,12.72L328.87,248ZM312,248l4.6-4.76,4.61,4.76-4.61,4.76Z" style="fill:#828282"></path><path d="M315.82,261.44l-12.31-12.72-12.3,12.72,12.3,12.71Zm-12.31-4.76,4.61,4.76-4.61,4.76-4.6-4.76Z" style="fill:#bfbfbf"></path><path d="M341.92,261.44l-12.31-12.72-12.3,12.72,12.3,12.71Zm-12.31-4.76,4.61,4.76-4.61,4.76-4.6-4.76Z" style="fill:#bfbfbf"></path><path d="M316.56,319.92l-12.3,12.72,12.3,12.72,12.31-12.72ZM312,332.64l4.6-4.76,4.61,4.76-4.61,4.76Z" style="fill:#828282"></path><path d="M316.56,293l-12.3,12.71,12.3,12.72,12.31-12.72ZM312,305.66l4.6-4.76,4.61,4.76-4.61,4.76Z" style="fill:#828282"></path><path d="M315.82,319.15l-12.31-12.71-12.3,12.71,12.3,12.72Zm-12.31-4.76,4.61,4.76-4.61,4.76-4.6-4.76Z" style="fill:#bfbfbf"></path><path d="M341.92,319.15l-12.31-12.71-12.3,12.71,12.3,12.72Zm-12.31-4.76,4.61,4.76-4.61,4.76-4.6-4.76Z" style="fill:#bfbfbf"></path><path d="M375.62,204.49l-12.31,12.72,12.31,12.72,12.3-12.72ZM371,217.21l4.61-4.76,4.6,4.76-4.6,4.76Z" style="fill:#828282"></path><path d="M375.62,177.52l-12.31,12.71L375.62,203l12.3-12.72ZM371,190.23l4.61-4.76,4.6,4.76-4.6,4.76Z" style="fill:#828282"></path><path d="M374.87,203.72,362.57,191l-12.31,12.71,12.31,12.72ZM362.57,199l4.6,4.76-4.6,4.76L358,203.72Z" style="fill:#bfbfbf"></path><path d="M401,203.72,388.67,191l-12.31,12.71,12.31,12.72ZM388.67,199l4.6,4.76-4.6,4.76-4.61-4.76Z" style="fill:#bfbfbf"></path><path d="M375.62,262.21l-12.31,12.71,12.31,12.72,12.3-12.72ZM371,274.92l4.61-4.76,4.6,4.76-4.6,4.76Z" style="fill:#828282"></path><path d="M375.62,235.23,363.31,248l12.31,12.72L387.92,248ZM371,248l4.61-4.76,4.6,4.76-4.6,4.76Z" style="fill:#828282"></path><path d="M374.87,261.44l-12.3-12.72-12.31,12.72,12.31,12.71Zm-12.3-4.76,4.6,4.76-4.6,4.76L358,261.44Z" style="fill:#bfbfbf"></path><path d="M401,261.44l-12.3-12.72-12.31,12.72,12.31,12.71Zm-12.3-4.76,4.6,4.76-4.6,4.76-4.61-4.76Z" style="fill:#bfbfbf"></path><path d="M375.62,319.92l-12.31,12.72,12.31,12.72,12.3-12.72ZM371,332.64l4.61-4.76,4.6,4.76-4.6,4.76Z" style="fill:#828282"></path><path d="M375.62,293l-12.31,12.71,12.31,12.72,12.3-12.72ZM371,305.66l4.61-4.76,4.6,4.76-4.6,4.76Z" style="fill:#828282"></path><path d="M374.87,319.15l-12.3-12.71-12.31,12.71,12.31,12.72Zm-12.3-4.76,4.6,4.76-4.6,4.76L358,319.15Z" style="fill:#bfbfbf"></path><path d="M401,319.15l-12.3-12.71-12.31,12.71,12.31,12.72Zm-12.3-4.76,4.6,4.76-4.6,4.76-4.61-4.76Z" style="fill:#bfbfbf"></path><path d="M238.16,144.74s-42.67-4-56.67-4-28.67-2-30.67,2,.67,9.34.67,12.67-3.33,26.67-3.33,51.33,5.33,58,5.33,58-5.33,12,0,13.34,11.33-4.67,11.33-4.67,25.34,4.67,38.67,5.33,58.67.67,81.33.67,52.67-2,52.67-2,12.67,1.33,14-4-2-10.67-2-10.67,9.33-29.33,9.33-56.66-4-45.34-4-45.34,5.34-10,0-12.66-13.33-.67-13.33-.67Z" style="fill:#263238;stroke:#263238;stroke-miterlimit:10"></path><path d="M238.16,138.14s-42.67-4-56.67-4-28.67-2-30.67,2,.67,9.34.67,12.67-3.33,26.67-3.33,51.33,5.33,58,5.33,58-5.33,12,0,13.34,11.33-4.67,11.33-4.67,25.34,4.67,38.67,5.33,58.67.67,81.33.67,52.67-2,52.67-2,12.67,1.33,14-4-2-10.67-2-10.67,9.33-29.33,9.33-56.66-4-45.34-4-45.34,5.34-10,0-12.66-13.33-.67-13.33-.67Z" style="fill:#ccc;stroke:#263238;stroke-miterlimit:10"></path><path d="M192.62,212.26a50.31,50.31,0,0,0-5.13,1.88" style="fill:none;stroke:#263238;stroke-linecap:round;stroke-linejoin:round"></path><path d="M226.93,216.62s-10.91-8.45-27.77-5.87" style="fill:none;stroke:#263238;stroke-linecap:round;stroke-linejoin:round"></path><path d="M198.16,160.14s14.66,2.67,21.33,15.34" style="fill:none;stroke:#263238;stroke-linecap:round;stroke-linejoin:round"></path><path d="M313,175.33a40.48,40.48,0,0,1,6.53-.52" style="fill:none;stroke:#263238;stroke-linecap:round;stroke-linejoin:round"></path><path d="M292.16,186.81s5.13-7.11,16-10.38" style="fill:none;stroke:#263238;stroke-linecap:round;stroke-linejoin:round"></path><path d="M306.81,231.55a18.85,18.85,0,0,1,2.68,2.59" style="fill:none;stroke:#263238;stroke-linecap:round;stroke-linejoin:round"></path><path d="M286.16,222.81a67.91,67.91,0,0,1,14.21,4.79" style="fill:none;stroke:#263238;stroke-linecap:round;stroke-linejoin:round"></path><path d="M236.49,238.48l-1,21.66a50.88,50.88,0,0,1-11.33,6.34c-6.67,2.66-47.34,12-51.67,15s-4.33,29.33-4.33,35v30.66l165,.34s0-55.34-2.34-62-44.66-19.34-50-22.34l.34-24.33Z" style="fill:#F97316;stroke:#263238;stroke-miterlimit:10"></path><path d="M259.16,303.81c31.2,1.84,40.95-22.1,43.69-32.41-10.13-3.73-19.68-6.93-22-8.26l.34-24.33-44.67-.33-1,21.66a50.88,50.88,0,0,1-11.33,6.34c-2.2.88-8.11,2.49-15.19,4.35C212.72,278.78,226.37,301.88,259.16,303.81Z" style="fill:#F97316;stroke:#263238;stroke-miterlimit:10"></path><path d="M258.16,297.14c23.56,1.84,33.13-19.55,36.16-28.83-6.55-2.35-11.83-4.23-13.5-5.17l.34-24.33-44.67-.33-1,21.66a50.88,50.88,0,0,1-11.33,6.34c-1,.38-2.67.92-4.86,1.54C223.44,276.58,235.06,295.35,258.16,297.14Z" style="fill:#e8e8e8;stroke:#263238;stroke-miterlimit:10"></path><path d="M263.09,261.44C270,259.7,276.28,254.75,281,250l.16-11.22-44.67-.33-.42,9.16C242.81,254.58,253.83,263.77,263.09,261.44Z" style="fill:#263238;stroke:#263238;stroke-miterlimit:10"></path><path d="M227.76,200.87s-.22-.54-.62-1.33c-1.37-2.66-4.85-8.08-9.32-4.88-5.81,4.14-.42,14.5,1.65,17.81s7.46,4.15,7.46,4.15,2.07,13.26,7,22,14.91,14.5,18.23,15.33,13.66,1.5,18.22-1a37,37,0,0,0,15.81-17.84c1.52-3.63,2.84-15.15,2.84-15.15s11.61-6.63,12-17-5.39-10.77-5.39-10.77-3.31-11.6-5-15.74-5.8-12-15.74-13.26-27.35-2.9-31.49-.83-12.43,7-15.75,12S227.76,200.87,227.76,200.87Z" style="fill:#e8e8e8;stroke:#263238;stroke-miterlimit:10"></path><path d="M243.41,204.49a7.4,7.4,0,0,1-7.28-6.12,7.59,7.59,0,0,0-.11,1.27,7.39,7.39,0,0,0,14.78,0,6.67,6.67,0,0,0-.12-1.27A7.38,7.38,0,0,1,243.41,204.49Z" style="fill:#263238"></path><path d="M250.77,196.47a7.39,7.39,0,0,0-10.63-6" style="fill:none;stroke:#263238;stroke-linecap:round;stroke-linejoin:round"></path><path d="M236.69,194a7.39,7.39,0,1,0,14,4.37" style="fill:none;stroke:#263238;stroke-linecap:round;stroke-linejoin:round"></path><path d="M274.25,204.49a7.39,7.39,0,0,1-7.27-6.12,7.59,7.59,0,0,0-.12,1.27,7.4,7.4,0,0,0,14.79,0,7.59,7.59,0,0,0-.12-1.27A7.39,7.39,0,0,1,274.25,204.49Z" style="fill:#263238"></path><path d="M281.5,195.6a7.4,7.4,0,0,0-10.37-5.21" style="fill:none;stroke:#263238;stroke-linecap:round;stroke-linejoin:round"></path><path d="M268.12,193a7.4,7.4,0,1,0,13.42,5.41" style="fill:none;stroke:#263238;stroke-linecap:round;stroke-linejoin:round"></path><circle cx="243.41" cy="197.09" r="2.29" style="fill:#263238"></circle><path d="M243.13,196.22a.8.8,0,0,1-1.6,0,.8.8,0,0,1,1.6,0Z" style="fill:#fff"></path><circle cx="274.25" cy="197.09" r="2.29" style="fill:#263238"></circle><circle cx="273.43" cy="196.22" r="0.8" style="fill:#fff"></circle><path d="M235,187.91s4.33-3.56,13.76-3.31" style="fill:none;stroke:#263238;stroke-linecap:round;stroke-linejoin:round;stroke-width:3px"></path><path d="M281.14,187.91s-4.34-3.56-13.77-3.31" style="fill:none;stroke:#263238;stroke-linecap:round;stroke-linejoin:round;stroke-width:3px"></path><path d="M299.48,201.75s-.77-3.82-3.57-2.8-4.84,7.64-4.84,7.64,3.05-.51,2.54,1.53-3.05,2.55-3.05,2.55" style="fill:none;stroke:#263238;stroke-linecap:round;stroke-linejoin:round"></path><path d="M217.15,202.7s.76-5.61,4.33-4.33,4.34,6.37,4.34,6.37-2.81-1.78-2.3.77a4.67,4.67,0,0,0,3.06,3.31" style="fill:none;stroke:#263238;stroke-linecap:round;stroke-linejoin:round"></path><path d="M252.33,210.35s-3.06,3.06-2,4.84,5.35,1.53,5.35,1.53,2,2,4.08,2,3.83-2,3.83-2,2.8.77,4.08-1-3.06-5.35-3.06-5.35" style="fill:none;stroke:#263238;stroke-linecap:round;stroke-linejoin:round"></path><path d="M250.29,213.15c0,.77-5.35,3.32-6.63,8.42" style="fill:none;stroke:#263238;stroke-linecap:round;stroke-linejoin:round"></path><path d="M266.86,212.9s5.36,2.29,7.14,7.39" style="fill:none;stroke:#263238;stroke-linecap:round;stroke-linejoin:round"></path><path d="M254.37,229.47c.36.29,3.82-4.84,8.92-.51" style="fill:none;stroke:#263238;stroke-linecap:round;stroke-linejoin:round"></path><path d="M279.55,142.86s-8.7-5.8-15.33-6.63-18.23.83-18.23.83l4.15,2.07s-16.58,5.8-22.38,11.19a46,46,0,0,0-9.12,12.43l3.73,1.66s-7.87,8.29-8.28,14.09,3.31,13.26,3.31,13.26l1.66-2.9s1.66,2.48,3.73,5,5,7,5,7,.41-7.46,1.24-9.11a23.55,23.55,0,0,1,9.12-11.61c7-5,13.67-9.11,13.67-9.11l-7.87,10.36s2.9.83,14.92-1.25,15.33-5.38,15.33-5.38l-3.32,3.31a9.06,9.06,0,0,0,7,.83,14.41,14.41,0,0,0,5.38-2.9s-.41,2.9,1.25,8.29a31.27,31.27,0,0,0,4.55,9.11l1.25,5.8,5.8-5.38A13.12,13.12,0,0,0,299.86,181a67.75,67.75,0,0,0-4.15-12l5.39,2.48s-2.07-7.46-2.9-9.11-2.49-4.15-2.49-4.15-1.24-9.94-5.8-14.5a17.85,17.85,0,0,0-10.36-5Z" style="fill:#263238;stroke:#263238;stroke-miterlimit:10"></path><path d="M101.4,392s13.2-1.65,35.47-9.07l27.23-9.08s-23.1,15.68-12.38,23.92,42.9,28.05,56.93,37.13,28.87,5.77,31.34,5.77S268,452.22,268,452.22l16-22.38S218.54,415.92,208.65,411s-22.28-28-22.28-28l1.65-9.08s23.93.83,39.6.83,67.64-4.13,76.72-2.48,39.6,2.48,39.6,2.48-14.85,28-23.1,37.12-23.1,31.35-23.1,31.35,47-33.83,53.62-38.78,11.55-21.44,11.55-21.44l40.42,12.37,4.95,2.47s6.6-4.12-.82-12.37S343.94,359,306.81,359s-115.49,2.48-137.76,2.48-50.28,12-59.4,17.32S101.4,392,101.4,392Z" style="fill:#263238;stroke:#263238;stroke-miterlimit:10"></path><path d="M414.23,360.81c-1.33-2.67-4-10-16-14s-35.33-14.67-63.33-18c-20.9-2.49-60.36-.15-79,1.2-18.67-1.35-58.14-3.69-79-1.2-28,3.33-51.33,14-63.33,18s-14.67,11.33-16,14c0,0-1.33,22.67,0,30.67a25.27,25.27,0,0,0,7.33,13.33l.67-11.33s38-22,66-22.67c21.2-.5,64.56-1,84.37-1.22,19.82.21,63.17.72,84.37,1.22,28,.67,66,22.67,66,22.67l.67,11.33a25.27,25.27,0,0,0,7.33-13.33C415.56,383.48,414.23,360.81,414.23,360.81Z" style="fill:#e8e8e8;stroke:#263238;stroke-miterlimit:10"></path><path d="M138.39,360.27c2.28-1.19,3.89-2.09,3.89-2.09" style="fill:none;stroke:#263238;stroke-linecap:round;stroke-linejoin:round"></path><path d="M100.53,384.14s.35-4.21,5.27-9.47,14.73-7.72,19.64-8.77a32.6,32.6,0,0,0,5.76-2.11" style="fill:none;stroke:#263238;stroke-linecap:round;stroke-linejoin:round"></path><path d="M103.69,371.51s3.51-4.2,14-6.31" style="fill:none;stroke:#263238;stroke-linecap:round;stroke-linejoin:round"></path><path d="M285.42,348.6a94.18,94.18,0,0,1,11.91-.24c17.89.7,45.25,7.37,53,8.77s25.25,7.72,30.52,9.82" style="fill:none;stroke:#263238;stroke-linecap:round;stroke-linejoin:round"></path><path d="M272.42,351.52a24.06,24.06,0,0,1,5.75-1.84" style="fill:none;stroke:#263238;stroke-linecap:round;stroke-linejoin:round"></path><path d="M411.84,382.5a8.22,8.22,0,0,1,.9,5.15" style="fill:none;stroke:#263238;stroke-linecap:round;stroke-linejoin:round"></path><path d="M372.75,361.34s26,9.47,33.67,15.09a20.22,20.22,0,0,1,2.66,2.26" style="fill:none;stroke:#263238;stroke-linecap:round;stroke-linejoin:round"></path><path d="M412.39,363.8a82.27,82.27,0,0,0-25.26-11.23" style="fill:none;stroke:#263238;stroke-linecap:round;stroke-linejoin:round"></path><path d="M247.36,418.12s14.43,3.31,24,3.31,10.52-.3,14.73,2.4,16.22,7.82,14.12,9.32-6.61,1.2-7.51.6-8.72-3.91-8.72-3.91l-4.51-.3A74.61,74.61,0,0,1,290.33,435c6,3.61,18,11.42,17.43,12.62a2.34,2.34,0,0,1-.66.73,4.77,4.77,0,0,1-5,.36c-4.3-2.15-14.05-7-15.68-7.7-2.11-.9-2.11,1.5.3,2.71s16.52,7.21,16.82,8.41.61,2.1-1.8,2.1-14.12-4.8-17.43-5.41-1.5,1.21,1.51,2.41,10.51,4.81,10.51,5.71-2.4,1.5-5.41,0-14.12-5.41-14.12-5.41-1.8.9.3,2.4,11.12,5.41,10.22,6.31-1.2,1.51-4.21,0-11.72-4.8-18.63-8.11-26.14-18-26.14-18Z" style="fill:#e8e8e8;stroke:#263238;stroke-miterlimit:10"></path><polygon points="242.55 412.71 249.16 418.12 239.25 437.06 229.63 431.05 242.55 412.71" style="fill:#F97316;stroke:#263238;stroke-miterlimit:10"></polygon><path d="M182.66,279s-10.5-1.5-17,7.5-8.5,26-11,46.5-8.5,56-8.5,60.5,44.09,24.66,58.5,35c19.5,14,26,12.71,37.5-13,6.5-14.5-52.49-37.32-52.49-37.32l8.49-64.68" style="fill:#F97316;stroke:#263238;stroke-miterlimit:10"></path><path d="M174.34,380.85c3.46-2,7.92-3.73,12.15-2.62" style="fill:none;stroke:#263238;stroke-linecap:round;stroke-linejoin:round"></path><path d="M168.05,385.61a32.67,32.67,0,0,1,2.51-2.17" style="fill:none;stroke:#263238;stroke-linecap:round;stroke-linejoin:round"></path><path d="M170.36,378.23s10.6-6.91,16.59-1.84" style="fill:none;stroke:#263238;stroke-linecap:round;stroke-linejoin:round"></path><path d="M269.06,439.42s-12.73,7.54-21.89,10.47-10.11,2.91-13.3,6.77S220.79,469,223.26,469.83s6.66-.87,7.33-1.71,7.12-6.38,7.12-6.38l4.2-1.65a74.09,74.09,0,0,0-8.66,8.44c-4.63,5.27-13.7,16.37-12.76,17.33a2.38,2.38,0,0,0,.85.49,4.78,4.78,0,0,0,4.86-1.18c3.45-3.35,11.26-10.94,12.6-12.1,1.73-1.5,2.46.79.54,2.67s-13.55,11.89-13.47,13.13.07,2.19,2.36,1.46,12-8.88,15-10.46,1.8.69-.7,2.75-8.55,7.78-8.28,8.64,2.75.7,5.15-1.65,11.81-9.45,11.81-9.45,2,.31.45,2.38-9,8.54-7.82,9.12,1.61,1.07,4-1.28,9.7-8.14,15.28-13.4,19.42-25.13,19.42-25.13Z" style="fill:#e8e8e8;stroke:#263238;stroke-miterlimit:10"></path><polygon points="272 432.81 267.35 439.97 282.55 454.99 289.88 446.34 272 432.81" style="fill:#F97316;stroke:#263238;stroke-miterlimit:10"></polygon><path d="M315.28,279s10.5-1.5,17,7.5,8.5,26,11,46.5,7.54,39.83,7.54,53.83c0,4.5-27.35,35.25-37.93,49.48-14.31,19.27-20.87,20-39.68-1-10.6-11.83,38.65-51.52,38.65-51.52l-12.08-70.32" style="fill:#F97316;stroke:#263238;stroke-miterlimit:10"></path><path d="M327.28,381.7c-3.92-.89-8.68-1.15-12.37,1.2" style="fill:none;stroke:#263238;stroke-linecap:round;stroke-linejoin:round"></path><path d="M334.72,384.32a31.91,31.91,0,0,0-3.06-1.31" style="fill:none;stroke:#263238;stroke-linecap:round;stroke-linejoin:round"></path><path d="M330.27,378s-12.2-3.36-16.36,3.3" style="fill:none;stroke:#263238;stroke-linecap:round;stroke-linejoin:round"></path><line x1="103.49" y1="438.14" x2="105.49" y2="393.48" style="fill:none;stroke:#263238;stroke-linecap:round;stroke-linejoin:round"></line><line x1="406.23" y1="393.48" x2="407.61" y2="417.52" style="fill:none;stroke:#263238;stroke-linecap:round;stroke-linejoin:round"></line></g></svg>