<svg xmlns="http://www.w3.org/2000/svg" viewBox="0 0 750 500"><g id="freepik--speech-bubble--inject-15"><path d="M575.05,166.69,568.41,155a31.38,31.38,0,1,0-7.51,8.35l0,0Z" style="fill:#fafafa"></path><path d="M575.05,166.69l-14.19-3.25a.09.09,0,0,1-.06-.1s0,0,0,0h0l.13.12a31.22,31.22,0,0,1-15,6.33,27,27,0,0,1-5,.25c-.85,0-1.72-.07-2.6-.14l-2.64-.4a31.52,31.52,0,0,1-19.56-12.56,31.29,31.29,0,0,1-5.29-12.09,31.88,31.88,0,0,1,.37-13.93A30.9,30.9,0,0,1,518,118l1.28-1.4c.42-.48.92-.87,1.37-1.3s.91-.88,1.42-1.24l1.51-1.12a12.26,12.26,0,0,1,1.55-1l1.59-1,1.66-.8a14.83,14.83,0,0,1,1.68-.75,32.11,32.11,0,0,1,14-2.16A31,31,0,0,1,556.93,111a31.78,31.78,0,0,1,14.86,18.28,33.91,33.91,0,0,1,1.36,10.18,31.21,31.21,0,0,1-1.53,8.8,31.92,31.92,0,0,1-3.14,6.73V155c4.2,7.51,6.26,11.2,6.57,11.74L568.33,155a.1.1,0,0,1,0-.09,31.46,31.46,0,0,0,3.08-6.71,30.87,30.87,0,0,0,1.49-8.73,33.61,33.61,0,0,0-1.38-10.09,31.46,31.46,0,0,0-14.75-18.08A30.72,30.72,0,0,0,544,107.58a31.71,31.71,0,0,0-13.88,2.14,16.44,16.44,0,0,0-1.66.74l-1.64.8-1.57.95a13.25,13.25,0,0,0-1.54,1l-1.48,1.11a54.46,54.46,0,0,0-2.76,2.51l-1.27,1.39A30.59,30.59,0,0,0,511.6,131a31.46,31.46,0,0,0-.38,13.77,31,31,0,0,0,5.22,12,31.39,31.39,0,0,0,19.34,12.47l2.62.41c.87.07,1.73.09,2.58.14a27.32,27.32,0,0,0,4.91-.23,31.16,31.16,0,0,0,8.53-2.4,31.48,31.48,0,0,0,6.42-3.82.09.09,0,0,1,.13,0,.11.11,0,0,1,0,.11h0l-.06-.14Z" style="fill:#263238"></path><path d="M555,137a8,8,0,0,0-1.83-4.48,7.63,7.63,0,0,0-3.89-2.7,6.27,6.27,0,0,0-7,2.83,6.24,6.24,0,0,0-1.74-2.11,6.39,6.39,0,0,0-4.83-1.22,7.71,7.71,0,0,0-4.17,2.26,8.12,8.12,0,0,0-2.3,4.26,9.85,9.85,0,0,0,.89,6.09,13.84,13.84,0,0,0,4.53,4.73c3,2.05,7,4.63,7,4.63s3.61-2.41,6.84-4.12a13.92,13.92,0,0,0,5-4.21A9.78,9.78,0,0,0,555,137Z" style="fill:#FF8C00"></path></g><g id="freepik--character-3--inject-15"><path d="M502.88,365.82,451,380.33c-15.2.92-49.56,3.19-49.56,3.19l11,66h38.92v0H495s13.48-20,14.87-44.73A84.65,84.65,0,0,0,502.88,365.82Z" style="fill:#263238"></path><path d="M445.51,392a3,3,0,0,1-.54.39l-1.6,1c-1.38.9-3.41,2.17-5.76,3.94a32.38,32.38,0,0,0-7.27,7.23,19.47,19.47,0,0,0-2.65,5.41,32,32,0,0,0-1.19,6.41c-.69,8.95-1.32,17.06-1.78,23-.25,2.89-.45,5.26-.59,7-.08.78-.14,1.41-.19,1.89a3.29,3.29,0,0,1-.1.66,2.85,2.85,0,0,1,0-.67c0-.48.05-1.11.08-1.9.11-1.71.25-4.08.43-7,.4-5.89.91-14,1.63-23a32.63,32.63,0,0,1,1.22-6.5,19.71,19.71,0,0,1,2.74-5.53,32.17,32.17,0,0,1,7.45-7.26c2.4-1.74,4.46-3,5.88-3.81.71-.42,1.26-.74,1.64-.95A3.18,3.18,0,0,1,445.51,392Z" style="fill:#455a64"></path><path d="M485.15,448.17a6,6,0,0,1,.34-.69l1.05-1.93c.24-.42.49-.88.77-1.38s.54-1.08.84-1.68c.58-1.22,1.32-2.57,2-4.15.33-.78.68-1.6,1.05-2.45s.67-1.77,1-2.7c.73-1.86,1.34-3.91,2-6.05a88.48,88.48,0,0,0,3.43-28.88c-.15-2.24-.25-4.37-.54-6.35-.13-1-.21-2-.37-2.86s-.31-1.79-.46-2.63c-.25-1.68-.65-3.17-.94-4.49-.16-.65-.28-1.27-.43-1.83s-.3-1.06-.43-1.52c-.24-.88-.44-1.58-.58-2.11a3.91,3.91,0,0,1-.17-.75,6.86,6.86,0,0,1,.27.71l.67,2.09c.15.46.31,1,.48,1.51s.3,1.18.47,1.83c.32,1.32.75,2.81,1,4.49.15.84.32,1.72.49,2.63s.26,1.88.4,2.88c.31,2,.42,4.13.59,6.38a93.61,93.61,0,0,1-.48,14.67,92.24,92.24,0,0,1-3,14.36c-.68,2.16-1.3,4.21-2.06,6.07-.37.93-.67,1.85-1.06,2.7l-1.09,2.45c-.66,1.58-1.42,2.92-2,4.13-.31.6-.59,1.17-.88,1.67l-.81,1.36-1.14,1.88A3.29,3.29,0,0,1,485.15,448.17Z" style="fill:#455a64"></path><path d="M423.27,406a7,7,0,0,1-1.85-.88,48.45,48.45,0,0,1-8-5.74,7,7,0,0,1-1.42-1.47c.1-.11,2.46,1.9,5.57,4.12S423.34,405.9,423.27,406Z" style="fill:#455a64"></path><path d="M403.08,293.6s-22.59,21.29-28.24,35.57-11,28.49-5.49,44c4.59,12.77,15.78,28.86,33.34,32.9,11.42,2.64,103-36.57,103-36.57s.9-11.49-4.46-20.62c-4.71-8-4.5-97.4-4.38-118.85a8.89,8.89,0,0,0-3.74-7.28l-15.31-10.84-31.4.8s-24.6,27.39-29.06,31.55S383.74,271.59,403.08,293.6Z" style="fill:#FF8C00"></path><path d="M453.73,303.18s-.14.06-.42.13-.7.17-1.25.25a25.73,25.73,0,0,1-4.66.3,26.93,26.93,0,0,1-24.24-16.5,24.32,24.32,0,0,1-1.43-4.45c-.13-.54-.18-1-.23-1.25a1.29,1.29,0,0,1,0-.45s.17.59.46,1.65a28.62,28.62,0,0,0,1.57,4.35,27.36,27.36,0,0,0,23.91,16.28,30,30,0,0,0,4.63-.13A13.54,13.54,0,0,1,453.73,303.18Z" style="fill:#263238"></path><g style="opacity:0.30000000000000004"><path d="M426.77,293.39c3.33,5.82,7.83,11.3,14,14s14.16,1.89,18.49-3.24c0,0-9.61-.18-15.35-.83s-14.28-4.9-17.12-9.93"></path></g><path d="M381.38,369.92s-.35.52-1.27.7a3.06,3.06,0,0,1-3.18-4.76c.53-.78,1.13-.95,1.14-.9s-.44.35-.82,1.09a3,3,0,0,0,.06,3,3.08,3.08,0,0,0,2.75,1.21A10.79,10.79,0,0,0,381.38,369.92Z" style="fill:#263238"></path><path d="M386.9,294.08c0-.38,1-4,3.54-5.14s9.49-.36,9.49-.36l4.89,6.5s-.57,2.77-4.61,2.05c0,0,7.73,5.64,7.44,8.19a5.4,5.4,0,0,1-2.09,3.75s3.62,2.09,2.43,4.66a3.2,3.2,0,0,1-3.69,1.9s.57,4.06-3.84,3.17-10.89-3.94-10.89-3.94a2.3,2.3,0,0,0,1.86,2.94,9.87,9.87,0,0,1,4.27,2.14s.27,3.25-2.64,2.79-5.64-.25-8.26-2.09-5.13-2.52-4.57-5.16,1-3.11,1-3.11-1.57-3.52-.06-5.28l1.51-1.77s-1.93-3.44-.16-5.42,4.08-4.18,4.08-4.18Z" style="fill:#c78976"></path><path d="M405.6,309a17,17,0,0,1-2.37-1.32c-1.44-.86-3.42-2-5.64-3.3s-4.25-2.35-5.72-3.14a15.18,15.18,0,0,1-2.35-1.36,13.2,13.2,0,0,1,2.51,1c1.52.71,3.59,1.76,5.82,3s4.19,2.5,5.58,3.44A12.49,12.49,0,0,1,405.6,309Z" style="fill:#bf654e"></path><path d="M404.89,315.71a88.59,88.59,0,0,1-8.39-4.14,85.05,85.05,0,0,1-8.14-4.6,81.9,81.9,0,0,1,8.39,4.14A82.56,82.56,0,0,1,404.89,315.71Z" style="fill:#bf654e"></path><path d="M400.65,297.58a24.64,24.64,0,0,1-4.53-2.16,25,25,0,0,1-4.29-2.61,24.41,24.41,0,0,1,4.54,2.15A24.1,24.1,0,0,1,400.65,297.58Z" style="fill:#bf654e"></path><path d="M488.8,114.43c.74-3.08.3-6.7-2.13-8.82-2.13-1.86-5.34-2.14-8.14-1.49a12.56,12.56,0,0,0-8.87,7.29,9.7,9.7,0,0,0,2.54,10.75L480,124h0a10.54,10.54,0,0,0,8.53-8.17C488.61,115.25,488.73,114.75,488.8,114.43Z" style="fill:#263238"></path><path d="M484.08,123.33a4.19,4.19,0,0,0-4.38-.63,3.78,3.78,0,0,0-4.81-4.7c-.68.23-1.38.65-2.05.42-1-.36-1-1.78-1.4-2.79a2.82,2.82,0,1,0-3.86,3.57c4.31,1,8.69,3.93,12.19,6.65a8.68,8.68,0,0,0,2.29,1.47,2.48,2.48,0,0,0,2.57-.39C485.6,126,485.12,124.22,484.08,123.33Z" style="fill:#FF8C00"></path><path d="M431.21,215.21c0-.09,1-.26,2.35-1a10.61,10.61,0,0,0,6-9.76c0-1.56-.3-2.5-.22-2.53s.14.22.27.65a9,9,0,0,1,.32,1.87,10.26,10.26,0,0,1-6.21,10.1,7.89,7.89,0,0,1-1.82.56A1.73,1.73,0,0,1,431.21,215.21Z" style="fill:#263238"></path><path d="M451.35,120.38h0a37.71,37.71,0,0,0-10-3.43c-3.32-.71-7-.32-9.68,1.82-3.48,2.82-4.24,7.8-6.88,11.42-1.71,2.35-4.16,4-6.33,5.95s-4.21,4.31-4.59,7.19c-.32,2.36.51,4.73.35,7.1-.4,5.83-6.62,10.53-5.64,16.3.73,4.24,5.14,7,6.27,11.16.68,2.49.07,5.15.41,7.71a13.77,13.77,0,0,0,5,8.39,33.08,33.08,0,0,0,8.63,4.93q5.28,2.27,10.78,4c2.17.68,4.88,1.17,6.4-.52,1.07-1.18,1.06-2.95,1-4.54C445.77,171.92,444.7,145.5,451.35,120.38Z" style="fill:#263238"></path><path d="M477.81,215.14l.26-72.67a5.94,5.94,0,0,0-5.62-5.76l-21.34-8.6-5.58.62c-12.57,0-21.3,13.8-21.43,24-.15,11.3.12,25.11,1.88,33.46,3.53,16.77,16.6,18.28,16.6,18.28s-.15,4.58-.29,10.2l-9.4,30.13Z" style="fill:#c78976"></path><path d="M430.72,162.32a2.19,2.19,0,0,0,2.2,2.09,2.08,2.08,0,0,0,2.14-2.07,2.18,2.18,0,0,0-2.2-2.09A2.09,2.09,0,0,0,430.72,162.32Z" style="fill:#263238"></path><path d="M427.24,158.06c.23.38,2.25-.79,4.76-.38s4.13,2.1,4.46,1.8c.16-.13,0-.79-.73-1.57a6,6,0,0,0-7.36-1.14C427.49,157.31,427.12,157.88,427.24,158.06Z" style="fill:#263238"></path><path d="M442.81,176.75a16,16,0,0,0-3.83-.5c-.6,0-1.17-.12-1.29-.52A3.06,3.06,0,0,1,438,174q.74-2.22,1.54-4.63c2.12-6.58,3.63-12,3.36-12.07s-2.2,5.19-4.33,11.77c-.51,1.62-1,3.17-1.46,4.65a3.45,3.45,0,0,0-.19,2.35,1.52,1.52,0,0,0,1,.83,4.77,4.77,0,0,0,1,.09A15.91,15.91,0,0,0,442.81,176.75Z" style="fill:#263238"></path><path d="M442.58,204.45a43.08,43.08,0,0,0,22.34-7.18s-5.44,12-22.45,11.29Z" style="fill:#bf654e"></path><path d="M444.08,182.32a4.21,4.21,0,0,1,3.69-1.75,3.88,3.88,0,0,1,2.72,1.29,2.43,2.43,0,0,1,.32,2.77,2.82,2.82,0,0,1-3,.93,8.76,8.76,0,0,1-3.07-1.63,2.59,2.59,0,0,1-.7-.66.79.79,0,0,1,0-.87" style="fill:#bf654e"></path><path d="M449.76,178c-.39,0-.26,2.53-2.34,4.44s-4.79,1.76-4.79,2.11c0,.16.62.47,1.77.44a6.3,6.3,0,0,0,4-1.63,5.49,5.49,0,0,0,1.8-3.71C450.24,178.61,449.93,178,449.76,178Z" style="fill:#263238"></path><path d="M427.45,150.81c.49.5,2.26-.14,4.44-.27s4,.15,4.42-.42c.17-.28-.14-.8-1-1.26a6.81,6.81,0,0,0-3.66-.69,6.54,6.54,0,0,0-3.48,1.25C427.46,150,427.23,150.56,427.45,150.81Z" style="fill:#263238"></path><path d="M457.77,162a2.17,2.17,0,0,1-2.07,2.21,2.07,2.07,0,0,1-2.26-1.92A2.17,2.17,0,0,1,455.5,160,2.08,2.08,0,0,1,457.77,162Z" style="fill:#263238"></path><path d="M460.68,149.33c-.52.54-2.6,0-5.09,0s-4.59.42-5.08-.13c-.21-.27.11-.81,1-1.32a8.57,8.57,0,0,1,4.12-.92,8.41,8.41,0,0,1,4.07,1C460.61,148.53,460.91,149.07,460.68,149.33Z" style="fill:#263238"></path><path d="M452.41,127.23c8.45,11.5,17.45,24.5,26.19,35.76,1.51-5.62,2.93-14.11,1.88-19.84a23.92,23.92,0,0,0-8.6-14.76c-4.64-3.53-12.9-4.26-18.3-2.09" style="fill:#263238"></path><path d="M474.7,171c-.06-1.26,1.25-4.3,2.48-4.55,3.3-.69,9.3-.72,9.78,7.71.65,11.52-11.06,9.8-11.09,9.47S474.91,175.39,474.7,171Z" style="fill:#c78976"></path><path d="M479.14,179.11c.05,0,.21.13.56.26a2,2,0,0,0,1.5-.05c1.19-.52,2.11-2.51,2-4.59a6.58,6.58,0,0,0-.72-2.84,2.35,2.35,0,0,0-1.6-1.46,1,1,0,0,0-1.15.62c-.14.33,0,.56-.11.58s-.26-.18-.19-.66a1.26,1.26,0,0,1,.41-.75,1.47,1.47,0,0,1,1.09-.35,2.83,2.83,0,0,1,2.2,1.66,6.93,6.93,0,0,1,.88,3.18c.06,2.32-1,4.56-2.65,5.14a2.14,2.14,0,0,1-1.85-.2C479.18,179.39,479.1,179.13,479.14,179.11Z" style="fill:#bf654e"></path><path d="M448.73,124c-7.09.55-15.38,2.74-19.8,8.31s-6.95,12.45-8.45,19.41A154.14,154.14,0,0,0,418,171.86a44.81,44.81,0,0,0-.11,9.26,15,15,0,0,0,3.58,8.39c-1.27-2.73,1.44-7.34,1.18-11.49l1.75-6.91c-.29-5.49,1.83-7.66,2-10.27.13-2-.77-3.83-1.43-5.68s-1.1-4-.13-5.72,3.35-2.56,4.64-4.22c1.47-1.89,1.35-4.61,2.59-6.66,1.74-2.85,5.46-3.57,8.4-5.16,3.81-2.06,8.6-4,9.24-8.32Z" style="fill:#263238"></path><path d="M459.86,158c-.24.38-2.28-.84-4.86-.46s-4.26,2.06-4.59,1.75c-.16-.13,0-.8.77-1.58a6.19,6.19,0,0,1,3.61-1.83,6,6,0,0,1,3.94.8C459.62,157.2,460,157.78,459.86,158Z" style="fill:#263238"></path><path d="M452.24,177.53c-.14,0-.39-.42-.9-.74s-1-.37-1-.51.64-.37,1.33.08S452.38,177.52,452.24,177.53Z" style="fill:#bf654e"></path><path d="M496.52,174.41c-.07-3.28-2.71-6-3.27-9.27-.47-2.74.19-5.52.53-8.28a35.67,35.67,0,0,0-17.33-34.44A57.44,57.44,0,0,0,461.33,117a16.67,16.67,0,0,0-6.22-.64,6.07,6.07,0,0,0-4.89,3.49h0c-2.46,3.41-3.45,8.67-1.49,12.39,2.87,5.44,10.85,6.32,14.1,11.55,3.48,5.6-.07,13.37,2.77,19.33,1.8,3.8,4.45,4.95,5.88,8.9.73,2-.35,6.76.75,8.59,1.57,2.61,3,5.36,5.68,6.77l-.05,12.37C485,197.27,496.87,189.51,496.52,174.41Z" style="fill:#263238"></path><path d="M492.17,158.16a2.09,2.09,0,0,1-.57.06,4.77,4.77,0,0,1-1.61-.28,9,9,0,0,1-4.4-4,34.7,34.7,0,0,1-1.82-3.71,19,19,0,0,0-2.25-4.06,9.12,9.12,0,0,0-4.06-2.93,29.39,29.39,0,0,0-5.36-1.34,36.91,36.91,0,0,1-17.69-8.19,32.94,32.94,0,0,1-4.19-4.24c-.47-.53-.77-1-1-1.28a2.6,2.6,0,0,1-.31-.48s.52.58,1.46,1.62a37.06,37.06,0,0,0,4.27,4.09,37.86,37.86,0,0,0,7.37,4.71,37.19,37.19,0,0,0,10.18,3.26,30.09,30.09,0,0,1,5.46,1.37,9.63,9.63,0,0,1,4.25,3.12,19.56,19.56,0,0,1,2.27,4.18,37.87,37.87,0,0,0,1.73,3.69,9,9,0,0,0,4.16,4A7,7,0,0,0,492.17,158.16Z" style="fill:#455a64"></path><path d="M492.07,142.7a11.63,11.63,0,0,0-.91-1.68,8.47,8.47,0,0,0-4.27-2.81,15.14,15.14,0,0,0-3.52-.7c-1.3-.1-2.69-.12-4.17-.19a20.09,20.09,0,0,1-4.62-.68,10.88,10.88,0,0,1-4.35-2.54,49.22,49.22,0,0,1-3.38-3.67,20.64,20.64,0,0,0-3.31-3.14,18.93,18.93,0,0,0-12.21-3.6c-1.24.07-1.91.22-1.92.16a1.64,1.64,0,0,1,.48-.13,11.55,11.55,0,0,1,1.43-.23,17.4,17.4,0,0,1,5.29.27,18.34,18.34,0,0,1,7.21,3.14c2.5,1.72,4.32,4.53,6.76,6.81a10.47,10.47,0,0,0,4.14,2.44,19.9,19.9,0,0,0,4.51.69c1.46.08,2.86.12,4.18.24a15.14,15.14,0,0,1,3.6.78,8.53,8.53,0,0,1,4.32,3A4.49,4.49,0,0,1,492.07,142.7Z" style="fill:#fff"></path><path d="M491.77,206.43a1.77,1.77,0,0,1-.82.2,4.69,4.69,0,0,1-2.27-.42,8.91,8.91,0,0,1-2.78-2,16.54,16.54,0,0,1-2.45-3.36,17,17,0,0,1-2.1-7.2,14.61,14.61,0,0,1,0-2.29,2.35,2.35,0,0,1,.17-.82c.09,0-.05,1.19.16,3.08a18.54,18.54,0,0,0,2.18,7,12.6,12.6,0,0,0,4.93,5.26A5.92,5.92,0,0,0,491.77,206.43Z" style="fill:#263238"></path><path d="M496.87,214.94a3.85,3.85,0,0,1-1.09.38,9.06,9.06,0,0,1-3.17.19,13.56,13.56,0,0,1-8.88-5.14,23.44,23.44,0,0,1-4.15-9.49c-.29-1.3-.46-2.36-.55-3.1a4.71,4.71,0,0,1-.09-1.15c.09,0,.35,1.61,1,4.16a24.86,24.86,0,0,0,4.2,9.26,13.66,13.66,0,0,0,8.52,5.09A13.41,13.41,0,0,0,496.87,214.94Z" style="fill:#263238"></path><path d="M504.13,201.88a1.63,1.63,0,0,1-.41.19c-.27.1-.68.26-1.22.44a15.49,15.49,0,0,1-4.68.9,8.31,8.31,0,0,1-3.28-.64,5.81,5.81,0,0,1-2.83-2.6,4.6,4.6,0,0,1-.53-2.06,4,4,0,0,1,.62-2.14,3.67,3.67,0,0,1,1.74-1.53,2.91,2.91,0,0,1,2.4,0,3.36,3.36,0,0,1,1.7,1.7,2.57,2.57,0,0,1-.12,2.34,3.68,3.68,0,0,1-1.69,1.47,5.8,5.8,0,0,1-2,.55,9.2,9.2,0,0,1-6.71-2.08,9.08,9.08,0,0,1-2.7-3.92,7.42,7.42,0,0,1-.32-1.26,1.24,1.24,0,0,1,0-.46c.05,0,.14.61.55,1.65a9.29,9.29,0,0,0,2.75,3.71,8.92,8.92,0,0,0,6.43,1.88,4.29,4.29,0,0,0,3.32-1.79,2.4,2.4,0,0,0-1.34-3.31,2.82,2.82,0,0,0-3.5,1.31,3.7,3.7,0,0,0-.09,3.72,5.39,5.39,0,0,0,2.58,2.42,8.08,8.08,0,0,0,3.1.66,16.56,16.56,0,0,0,4.63-.73A11.6,11.6,0,0,1,504.13,201.88Z" style="fill:#263238"></path><path d="M488.85,107c0,.09-1.31-.3-3.43-.31a15.26,15.26,0,0,0-7.86,2.11,14.59,14.59,0,0,0-5.47,6,31.37,31.37,0,0,0-1.21,3.23,3,3,0,0,1,.1-.94,11.94,11.94,0,0,1,.78-2.44,14,14,0,0,1,5.53-6.3,14.67,14.67,0,0,1,8.14-2,11.83,11.83,0,0,1,2.53.37A2.73,2.73,0,0,1,488.85,107Z" style="fill:#455a64"></path><path d="M486,121.43c-.08,0,0-.91-.07-2.34a13,13,0,0,0-1.6-5.29,13.52,13.52,0,0,0-3.68-4.14c-1.15-.86-2-1.24-1.93-1.32a5.91,5.91,0,0,1,2.14,1,12.19,12.19,0,0,1,3.92,4.18,11.78,11.78,0,0,1,1.52,5.53A5.62,5.62,0,0,1,486,121.43Z" style="fill:#455a64"></path><path d="M464.05,168.1a16,16,0,0,1-1.85-.58,13.23,13.23,0,0,0-4.57-.43,12.92,12.92,0,0,0-4.42,1.22,19.08,19.08,0,0,1-1.72.88A4.65,4.65,0,0,1,453,168a11.24,11.24,0,0,1,9.27-.81A4.67,4.67,0,0,1,464.05,168.1Z" style="fill:#bf654e"></path><path d="M495.92,228.59Z" style="fill:#c78976"></path><path d="M464,260.52c-.58-6-.61,7.09,0,0Z" style="fill:#c78976"></path><path d="M502.86,257.91c-.28-6.75-1.68-21.13-9-29.29-8.79-9.76-19.15-8.79-25.77,2.56-6.75,11.57-3.6,23.59-4.09,29.34l8.19,67.71s-35.12,63.26-45.2,68.29l16,7.69c11.69-4.86,51.52-48.28,62.76-69.94C510.41,325.33,503.14,264.67,502.86,257.91Z" style="fill:#c78976"></path><path d="M463.51,281.63l43.35-8.73s-3.57-27.1-8.34-40.27c-3.72-10.25-15.26-14.1-15.26-14.1L464.2,230s-3.26,15.42-3,29.53S463.51,281.63,463.51,281.63Z" style="fill:#FF8C00"></path><path d="M487.44,223.1a3.67,3.67,0,0,1-.74.12l-2.12.24a52.32,52.32,0,0,0-7.68,1.39,18.85,18.85,0,0,0-9.7,5.85c-2.8,3.32-4.41,8-4.95,13s0,9.82.13,14.19l.56,11.62c.14,3.26.25,5.92.33,7.83q0,1.34.06,2.13a3.91,3.91,0,0,1,0,.75,3.58,3.58,0,0,1-.09-.74c0-.54-.1-1.24-.16-2.13-.12-1.9-.29-4.56-.5-7.83s-.42-7.25-.67-11.62-.79-9.18-.17-14.26,2.2-9.84,5.1-13.24a17.35,17.35,0,0,1,4.88-3.93,22.47,22.47,0,0,1,5.09-2,45.7,45.7,0,0,1,7.76-1.24c.93-.08,1.64-.12,2.13-.15A4.27,4.27,0,0,1,487.44,223.1Z" style="fill:#263238"></path><path d="M494.41,290.06a11.88,11.88,0,0,1,.39,1.14,6.76,6.76,0,0,0,.58,1.26c.26.45.74.89,1.13,1.49a12,12,0,0,1,1.89,4.56,11.73,11.73,0,0,1,.18,2.93c-.06,1-.25,2.05-.41,3.09a13.73,13.73,0,0,0-.21,3,7.73,7.73,0,0,0,.69,2.69,12.34,12.34,0,0,0,2.89,3.79,28.73,28.73,0,0,0,2.55,2,5.77,5.77,0,0,1,1,.75,4.78,4.78,0,0,1-1.06-.58,22,22,0,0,1-2.69-1.95,12,12,0,0,1-3.07-3.86,7.86,7.86,0,0,1-.77-2.86,13.91,13.91,0,0,1,.21-3.14c.16-1.05.35-2.07.41-3.05a11.33,11.33,0,0,0-.14-2.81,12.09,12.09,0,0,0-1.73-4.44c-.35-.58-.8-1-1.08-1.55a7.11,7.11,0,0,1-.52-1.34A3.5,3.5,0,0,1,494.41,290.06Z" style="fill:#263238"></path><path d="M497.77,312a17.8,17.8,0,0,0-2-2.81,10.76,10.76,0,0,0-3-2.19,10.1,10.1,0,0,0-2.07-.72,6.35,6.35,0,0,0-1.13-.19c-.36,0-.48.11-.49.48a6.69,6.69,0,0,0,5.25,5.59,9.43,9.43,0,0,0,3.44,0,2.23,2.23,0,0,1-.89.34,6.79,6.79,0,0,1-2.62.07,6.95,6.95,0,0,1-5.7-6,1.08,1.08,0,0,1,.27-.76,1,1,0,0,1,.76-.24,7.69,7.69,0,0,1,1.23.21,10,10,0,0,1,2.16.79A10.39,10.39,0,0,1,496,309a9,9,0,0,1,1.45,2.16A2.65,2.65,0,0,1,497.77,312Z" style="fill:#263238"></path><path d="M500.49,309.58a7.45,7.45,0,0,0,2.63-1.72,5.65,5.65,0,0,0,1.6-2.9,5.22,5.22,0,0,0-.9-3.87,5.54,5.54,0,0,0-.37-.45h.38a18.58,18.58,0,0,0-2.62,3,6.78,6.78,0,0,0-1,3,6.48,6.48,0,0,0,.33,2.91,1.63,1.63,0,0,1-.41-.71,5.52,5.52,0,0,1-.28-2.24,6.79,6.79,0,0,1,1-3.2,17.66,17.66,0,0,1,2.65-3.15l.19-.19.18.2a5.21,5.21,0,0,1,.41.5,5.54,5.54,0,0,1,.95,4.26,5.78,5.78,0,0,1-1.81,3.07A4.43,4.43,0,0,1,500.49,309.58Z" style="fill:#263238"></path><path d="M496.09,304.85s.14-.35.3-1a5.75,5.75,0,0,0,0-2.76,6.83,6.83,0,0,0-2.08-3.46,9.37,9.37,0,0,0-2-1.38,11.33,11.33,0,0,0-1.17-.54l-.63-.23a.8.8,0,0,0-.48-.08c-.05,0-.11.14-.1.34a4.94,4.94,0,0,0,.08.63,12.39,12.39,0,0,0,.28,1.27,21.21,21.21,0,0,0,.79,2.33c.3.74.61,1.43.89,2.07a9.09,9.09,0,0,0,.89,1.71,3.19,3.19,0,0,0,2.27,1.35,1.66,1.66,0,0,0,.95-.26s-.21.43-.95.46a3.3,3.3,0,0,1-2.56-1.33,8.87,8.87,0,0,1-1-1.75c-.3-.64-.63-1.32-.94-2.06a20.87,20.87,0,0,1-.85-2.39,13.18,13.18,0,0,1-.29-1.31,4.91,4.91,0,0,1-.09-.71.83.83,0,0,1,.42-.83,1.21,1.21,0,0,1,.85.07c.22.07.43.15.65.24a10.43,10.43,0,0,1,1.22.57,9.39,9.39,0,0,1,2.08,1.48,7,7,0,0,1,2.11,3.74,5.67,5.67,0,0,1-.16,2.89A2.18,2.18,0,0,1,496.09,304.85Z" style="fill:#263238"></path><path d="M500.59,300.74a3.44,3.44,0,0,0,2-2.78,13.37,13.37,0,0,0,.48-3.85,14.18,14.18,0,0,0-.25-2.29c-.08-.39-.17-.78-.29-1.17a4,4,0,0,0-.44-1.1c-.24-.29-.35-.28-.59.06s-.43.69-.61,1a12.64,12.64,0,0,0-.87,2.12,13,13,0,0,0-.52,3.85,22.77,22.77,0,0,0,.51,3.58,2.88,2.88,0,0,1-.39-.91,10.64,10.64,0,0,1-.49-2.66,12.17,12.17,0,0,1,.43-4,12.75,12.75,0,0,1,.87-2.22,12.1,12.1,0,0,1,.64-1.1,1,1,0,0,1,.68-.49.86.86,0,0,1,.76.41,12.44,12.44,0,0,1,.43,8.83,4.5,4.5,0,0,1-1.41,2.32A1.36,1.36,0,0,1,500.59,300.74Z" style="fill:#263238"></path><path d="M497.34,294.53a11.42,11.42,0,0,0,.1-3.78,10.29,10.29,0,0,0-1.39-3.83c-.39-.67-.83-1.36-1.31-2.07l-.37-.53a3,3,0,0,0-.34-.46c-.09-.05-.11-.05-.26.07a5.62,5.62,0,0,0-.38.49,7.74,7.74,0,0,0-1.33,4.69,6.87,6.87,0,0,0,.42,2.1,5.76,5.76,0,0,0,1,1.6,8.74,8.74,0,0,0,2.12,1.76,5.59,5.59,0,0,1,.86.56,3.05,3.05,0,0,1-1-.38,8.12,8.12,0,0,1-2.3-1.7c-1.8-1.71-2.38-5.77-.22-8.92a5.32,5.32,0,0,1,.45-.57.83.83,0,0,1,.41-.24.69.69,0,0,1,.53.13,3.17,3.17,0,0,1,.45.58l.36.54c.48.71.92,1.42,1.31,2.12a13.36,13.36,0,0,1,.93,2.07,9.37,9.37,0,0,1,.41,1.94,9.13,9.13,0,0,1-.12,2.85A2.4,2.4,0,0,1,497.34,294.53Z" style="fill:#263238"></path><path d="M502.66,304.72a6.7,6.7,0,0,1-2.23,4.76,193.76,193.76,0,0,0,2.23-4.76Z" style="fill:#263238"></path><path d="M497.89,312.31a4.88,4.88,0,0,1-2.88-1.12,7.27,7.27,0,0,1-2.26-2.09,12.39,12.39,0,0,1,2.55,1.66C496.66,311.71,497.92,312.17,497.89,312.31Z" style="fill:#263238"></path><path d="M501.33,294.1a7.45,7.45,0,0,1,0,3.34,7.27,7.27,0,0,1-1,3.17,21.42,21.42,0,0,1,.52-3.26A21.14,21.14,0,0,1,501.33,294.1Z" style="fill:#263238"></path><path d="M495.89,304.91a27.81,27.81,0,0,1-1.42-2.86,27.09,27.09,0,0,1-1.54-2.79,8.82,8.82,0,0,1,3,5.65Z" style="fill:#263238"></path><path d="M489.55,291.15c0-.06.29-.17.59.16a.69.69,0,0,1,.12.74.82.82,0,0,1-.77.52.84.84,0,0,1-.75-.57.74.74,0,0,1,.17-.73c.32-.3.62-.18.6-.12s-.2.13-.31.35a.35.35,0,0,0,0,.33.37.37,0,0,0,.31.22.4.4,0,0,0,.33-.2.38.38,0,0,0,0-.33C489.74,291.29,489.55,291.22,489.55,291.15Z" style="fill:#263238"></path><path d="M504.21,297.24c0-.06.29-.16.59.16a.69.69,0,0,1,.12.74.81.81,0,0,1-.77.52.83.83,0,0,1-.75-.57.74.74,0,0,1,.17-.73c.32-.3.62-.18.6-.12s-.2.13-.31.35a.35.35,0,0,0,0,.33.37.37,0,0,0,.31.22.4.4,0,0,0,.33-.2.38.38,0,0,0,0-.33C504.4,297.38,504.21,297.31,504.21,297.24Z" style="fill:#263238"></path><path d="M495.53,315.23c0-.06.51-.18,1,.4a1.24,1.24,0,0,1,.19,1.26,1.43,1.43,0,0,1-1.31.87,1.41,1.41,0,0,1-1.25-.95,1.22,1.22,0,0,1,.26-1.24c.53-.55,1.06-.4,1-.35s-.43.11-.74.57a.91.91,0,0,0-.1.85.89.89,0,0,0,1.67.05.88.88,0,0,0,0-.85C495.94,315.36,495.51,315.3,495.53,315.23Z" style="fill:#263238"></path><path d="M496.21,306.28c0-.06.17-.16.37,0a.42.42,0,0,1,.1.47.52.52,0,0,1-.5.34.51.51,0,0,1-.48-.37.45.45,0,0,1,.12-.47c.22-.17.39-.06.37,0s-.08.14-.08.23.08.08.08.1.09,0,.09-.09S496.21,306.35,496.21,306.28Z" style="fill:#263238"></path><path d="M499.73,283.87c0-.06.63-.19,1.22.53a1.5,1.5,0,0,1,.21,1.52,1.63,1.63,0,0,1-3.08-.09,1.51,1.51,0,0,1,.3-1.51c.63-.68,1.29-.51,1.25-.46s-.54.09-1,.69a1.13,1.13,0,0,0-.14,1.11,1.17,1.17,0,0,0,2.19.07,1.16,1.16,0,0,0-.07-1.12C500.26,284,499.71,284,499.73,283.87Z" style="fill:#263238"></path><path d="M394.38,402.05s1.07-6.42,4.93-6.12,4.32.58,6.78-.73,4-5,10.49-5.11,12.95,2.77,16.65,1.32l13.57,10.64s-12.49,10.78-16.5,12.39-13.57,2-15.11,1.46-12-3.07-13.11-3.65-10-4.66-10.17-6,1.6-2.48,2.87-2.18,7.9,2,11,.38a20.51,20.51,0,0,1,4-1.85Z" style="fill:#c78976"></path></g></svg>