<svg xmlns="http://www.w3.org/2000/svg" viewBox="0 0 500 500"><g id="freepik--Mirror--inject-49"><path d="M159.5,165.86c-3.19-4.78,3.18-8,1.59-17.54s-9.57-2.39-15.15-8.77,3.19-11.16,1.6-19.13-13.55-4-15.15-11.16S135.58,84.55,118,79s-36.67,3.18-36.67,3.18l-.44,4.6V190.61h86.63c-.05-.89-.09-1.74-.09-2.43,0-3.19,4.78-7.17,4.78-14.35S162.68,170.64,159.5,165.86Z" style="fill:#263238"></path><path d="M159.5,165.86c-3.19-4.78,3.18-8,1.59-17.54s-9.57-2.39-15.15-8.77,3.19-11.16,1.6-19.13-13.55-4-15.15-11.16S135.58,84.55,118,79s-36.67,3.18-36.67,3.18l-.44,4.6V190.61h86.63c-.05-.89-.09-1.74-.09-2.43,0-3.19,4.78-7.17,4.78-14.35S162.68,170.64,159.5,165.86Z" style="fill:#fff;opacity:0.7000000000000001"></path><rect x="80.93" y="45" width="119.97" height="145.61" style="fill:none;stroke:#263238;stroke-linecap:round;stroke-linejoin:round"></rect><line x1="158.7" y1="98.8" x2="120.67" y2="149.83" style="fill:none;stroke:#263238;stroke-linecap:round;stroke-linejoin:round"></line><line x1="189.93" y1="56.9" x2="165.93" y2="89.1" style="fill:none;stroke:#263238;stroke-linecap:round;stroke-linejoin:round"></line><line x1="106.62" y1="150.92" x2="102.26" y2="156.85" style="fill:none;stroke:#263238;stroke-linecap:round;stroke-linejoin:round"></line><line x1="136.45" y1="110.38" x2="111.61" y2="144.13" style="fill:none;stroke:#263238;stroke-linecap:round;stroke-linejoin:round"></line><line x1="94.88" y1="71.36" x2="90.86" y2="76.19" style="fill:none;stroke:#263238;stroke-linecap:round;stroke-linejoin:round"></line><line x1="112.78" y1="49.89" x2="101.21" y2="63.77" style="fill:none;stroke:#263238;stroke-linecap:round;stroke-linejoin:round"></line></g><g id="freepik--Sink--inject-49"><polygon points="130.11 242.39 113.7 242.39 116.99 227.01 126.83 227.01 130.11 242.39" style="fill:#8a8a8a;stroke:#263238;stroke-linecap:round;stroke-linejoin:round"></polygon><polygon points="167.03 242.39 150.62 242.39 153.9 227.01 163.75 227.01 167.03 242.39" style="fill:#8a8a8a;stroke:#263238;stroke-linecap:round;stroke-linejoin:round"></polygon><path d="M140.88,246a3.08,3.08,0,0,1-3.08-3.08V216.24a14.87,14.87,0,0,1,29.74,0V226a3.08,3.08,0,0,1-6.15,0v-9.75a8.72,8.72,0,0,0-17.43,0V242.9A3.08,3.08,0,0,1,140.88,246Z" style="fill:#8a8a8a;stroke:#263238;stroke-linecap:round;stroke-linejoin:round"></path><rect x="62.26" y="239.66" width="173.64" height="209.87" style="fill:#F97316;stroke:#263238;stroke-linecap:round;stroke-linejoin:round"></rect><rect x="109.43" y="239.66" width="126.47" height="209.87" style="fill:#F97316;stroke:#263238;stroke-linecap:round;stroke-linejoin:round"></rect><rect x="62.26" y="239.66" width="177.06" height="8.2" style="fill:#fff;stroke:#263238;stroke-linecap:round;stroke-linejoin:round"></rect><rect x="110.36" y="239.66" width="128.96" height="8.2" style="fill:#fff;stroke:#263238;stroke-linecap:round;stroke-linejoin:round"></rect><rect x="116.27" y="254.01" width="112.8" height="36.23" style="fill:#F97316;stroke:#263238;stroke-linecap:round;stroke-linejoin:round"></rect><rect x="159.16" y="269.56" width="26.34" height="4.45" style="fill:#263238;stroke:#263238;stroke-linecap:round;stroke-linejoin:round"></rect><rect x="116.27" y="302.55" width="112.8" height="36.23" style="fill:#F97316;stroke:#263238;stroke-linecap:round;stroke-linejoin:round"></rect><rect x="159.16" y="318.1" width="26.34" height="4.45" style="fill:#263238;stroke:#263238;stroke-linecap:round;stroke-linejoin:round"></rect><rect x="116.27" y="351.09" width="112.8" height="36.23" style="fill:#F97316;stroke:#263238;stroke-linecap:round;stroke-linejoin:round"></rect><rect x="159.16" y="366.64" width="26.34" height="4.45" style="fill:#263238;stroke:#263238;stroke-linecap:round;stroke-linejoin:round"></rect><rect x="116.27" y="399.62" width="112.8" height="36.23" style="fill:#F97316;stroke:#263238;stroke-linecap:round;stroke-linejoin:round"></rect><rect x="159.16" y="415.17" width="26.34" height="4.45" style="fill:#263238;stroke:#263238;stroke-linecap:round;stroke-linejoin:round"></rect></g><g id="freepik--Plants--inject-49"><path d="M40.57,356.19a12.59,12.59,0,0,0-.76-2.36,24.87,24.87,0,0,0-1.18-2.52,30.14,30.14,0,0,0-2.63-4,.24.24,0,0,0-.41.21c.14.53.31,1.24.51,2s.36,1.73.54,2.64c.39,1.81.65,3.74,1,5.11l.59,2.38a19,19,0,0,0,.58,1.89L37,360c-.58-.53-1.23-1-1.84-1.49a4.79,4.79,0,0,0,.26-2.59,16.44,16.44,0,0,0-1.14-4.35,18.44,18.44,0,0,0-1.16-2.22,26.59,26.59,0,0,0-1.66-2.3,27.73,27.73,0,0,0-3.42-3.52.24.24,0,0,0-.37.28c.25.51.58,1.18.92,1.94l1.06,2.5c.66,1.74,1.36,3.55,1.88,4.91.34.82.67,1.58,1,2.24s.59,1.3.86,1.8l-1.44-1-1.5-.89a2.12,2.12,0,0,0-.43-.83,7.63,7.63,0,0,0-1-1,12.47,12.47,0,0,0-3.45-1.85A14.89,14.89,0,0,0,21,351a16.47,16.47,0,0,0-4,.39c-.2.05-.18.41,0,.46a34.48,34.48,0,0,1,3.53,1.32c1.37.56,2.77,1.26,3.9,1.65,2.34.86,4.46,1.41,5.47,1.24l1.49.88c.48.3,1,.64,1.43,1a12.16,12.16,0,0,0-1.87-.08,18.22,18.22,0,0,0-2.21.3,11.81,11.81,0,0,0-2.11.67,16.32,16.32,0,0,0-2.19,1.06c-.71.41-1.36.83-1.92,1.23s-1,.8-1.37,1.09c-.15.13-.15.46,0,.41.68-.21,1.84-.46,3.18-.72l2.08-.37c.69-.1,1.38-.21,2-.35,1.41-.31,2.76-.58,3.89-.93a6.45,6.45,0,0,0,2.34-1c.59.48,1.21.92,1.77,1.43l1.69,1.54a12.45,12.45,0,0,0-1.85-.35,11.52,11.52,0,0,0-2.23-.08,16.6,16.6,0,0,0-4.59.94,22.16,22.16,0,0,0-2.13.82c-.65.3-1.19.58-1.6.8-.18.1-.24.42-.07.41.75-.07,2-.06,3.37-.07.71,0,1.42,0,2.15,0h2.07c1.43,0,2.87-.16,4-.28a6.07,6.07,0,0,0,2.47-.62c1.08,1.07,2,2.26,3,3.43a14.65,14.65,0,0,0-4-1,18.71,18.71,0,0,0-4.71.21,29.88,29.88,0,0,0-4,.95c-.2.07-.3.38-.13.39l3.42.55c1.36.3,3,.53,4.22.71a33.93,33.93,0,0,0,4,.28,6,6,0,0,0,2.53-.29l1.36,1.84,1.27,1.91a14.56,14.56,0,0,0-3.88-1.45,19.34,19.34,0,0,0-4.75-.44,34.91,34.91,0,0,0-4.13.34c-.22,0-.35.32-.18.38.73.25,2,.65,3.38,1.07a37.8,37.8,0,0,0,4.2,1.31,31.06,31.06,0,0,0,4,.75,6.18,6.18,0,0,0,2.56-.05l1.15,2,1.07,2a14.23,14.23,0,0,0-3.71-1.83,19.6,19.6,0,0,0-4.68-.92,35.91,35.91,0,0,0-4.2-.17c-.22,0-.39.29-.22.36.77.33,1.94.92,3.32,1.52a41.77,41.77,0,0,0,4,1.7,31,31,0,0,0,3.9,1.15,6,6,0,0,0,2.54.23c.66,1.38,1.21,2.8,1.77,4.22a15,15,0,0,0-3.48-2.24,21.06,21.06,0,0,0-4.55-1.4,33,33,0,0,0-4.15-.58c-.22,0-.42.25-.25.34.72.39,1.82,1.09,3.12,1.82s2.66,1.54,3.8,2.11c2.69,1.24,5.21,2.25,6.26,2.08l.66,2.19.57,2.21a14.37,14.37,0,0,0-3.18-2.63,20.49,20.49,0,0,0-4.33-1.91,39.12,39.12,0,0,0-4-1c-.21,0-.44.19-.3.3.61.48,1.74,1.25,2.87,2.13s2.42,1.82,3.53,2.5c2.48,1.54,4.88,2.85,5.91,2.84a34.31,34.31,0,0,1,.54,4.5c0,.18.2.32.45.33a.4.4,0,0,0,.44-.37,34.06,34.06,0,0,0-.55-4.62c1-.27,2.79-2.47,4-5.66a22.05,22.05,0,0,0,1.14-5,39.51,39.51,0,0,0,.28-4.57.23.23,0,0,0-.45-.06l-1.93,4.25c-.81,1.68-1.59,3.37-2.13,4.7a36.39,36.39,0,0,0-1.38,4.18c-.18-.77-.39-1.53-.59-2.3l-.68-2.27a4.81,4.81,0,0,0,1.65-2,16.7,16.7,0,0,0,1.61-4.12,22.75,22.75,0,0,0,.58-5.08,42.33,42.33,0,0,0-.24-4.52c0-.23-.37-.23-.45,0-.3,1-.89,2.7-1.46,4.42S55,379,54.66,380.37a31.51,31.51,0,0,0-.86,4.31c-.57-1.47-1.15-2.94-1.83-4.37a5,5,0,0,0,1.44-2.16,19.61,19.61,0,0,0,1.14-4.27,24.33,24.33,0,0,0,0-5.06,43.12,43.12,0,0,0-.68-4.45c-.05-.23-.4-.19-.45.05-.2,1-.61,2.76-1,4.53s-.83,3.61-1,5a33.78,33.78,0,0,0-.38,4.38l-1.1-2.1-1.2-2a4.94,4.94,0,0,0,1.19-2.3,20.07,20.07,0,0,0,.7-4.35,26,26,0,0,0-.48-5c-.39-1.75-.89-3.41-1.22-4.43-.07-.24-.43-.16-.44.08L48,362.84c-.15,1.81-.48,3.7-.51,5.09a33.54,33.54,0,0,0,.07,4.39l-1.31-2-1.41-1.91a5,5,0,0,0,1-2.4,19,19,0,0,0,.2-4.43,21.62,21.62,0,0,0-1.16-5,43.38,43.38,0,0,0-1.87-4.3.24.24,0,0,0-.44.14c.09,1.1.15,2.92.23,4.75s0,3.78.17,5.17a33.81,33.81,0,0,0,.56,4.38c-1-1.22-2-2.45-3.14-3.56a5,5,0,0,0,.65-2.52A16.72,16.72,0,0,0,40.57,356.19Z" style="fill:#263238"></path><path d="M74.46,318.85c1.32-1.62,3.08-3.83,4.63-5.94l4-5.26c.22-.27,0-.63-.22-.46-1.16.72-3,2-5,3.49a45.4,45.4,0,0,0-5.39,4.89,42,42,0,0,0-4.16,5.77l1.2-4.27.62-2.14.71-2.11c1,.13,4.09-2.41,7.63-5.81,3-3,7.57-8.21,9.71-10.34.24-.25.09-.63-.18-.49a57.16,57.16,0,0,0-5.29,3c-1,.67-2.13,1.37-3.11,2.13s-1.91,1.51-2.7,2.25a29.41,29.41,0,0,0-2.65,2.75c-.79.91-1.49,1.79-2.07,2.59.8-2,1.51-4.08,2.39-6.06A11.59,11.59,0,0,0,77,299.61c1-1.65,2.11-3.85,3.35-6.21.52-1.06,1.07-2.3,1.68-3.58.28-.65.58-1.32.87-2l.91-2c1.18-2.62,2.33-5.09,3.09-6.56.18-.34-.11-.55-.38-.26a67.25,67.25,0,0,0-4.64,5.73l-1.29,1.82c-.41.62-.81,1.25-1.2,1.86a35.64,35.64,0,0,0-2,3.52,47.23,47.23,0,0,0-2.61,6.22,15.12,15.12,0,0,0-.84,4.07l-.66,1.52-.6,1.56-1.19,3.1c.1-1,.16-2.07.19-3.26s0-2.48,0-3.8c0-1.11,0-2.37-.15-3.68s-.17-2.66-.26-4c-.22-2.64-.36-5.09-.48-6.6,0-.35-.43-.21-.52.17-.2.84-.45,1.95-.75,3.21s-.5,2.68-.74,4.13-.39,2.95-.53,4.35a31.6,31.6,0,0,0-.17,3.87c.08,5.17,1.08,9.08,2,9.68l-.7,2.08c-.22.7-.41,1.4-.61,2.11l-1.2,4.21a60.66,60.66,0,0,0-.45-7.06c-.17-2.2-.68-5-1.11-7.58s-.84-5.06-1.09-6.53c-.05-.34-.45-.17-.51.22-.22,1.72-.61,4.51-.79,7.46a49.77,49.77,0,0,0,.09,8.27,31.82,31.82,0,0,0,1.3,6.46c.55,1.66,1.12,2.73,1.58,3l-.49,2.14-.38,2.16L65,333.78a56.43,56.43,0,0,0-1.2-7c-.39-2.17-1.13-4.87-1.87-7.45s-1.28-4.94-1.69-6.41c-.09-.33-.46-.12-.48.27-.21,3.49-.24,11.34.85,15.79,1,5.07,2.94,8.7,3.89,9.1-.41,2.9-.45,5.83-.6,8.75-.22-.94-.5-2-.85-3.16-.17-.57-.36-1.17-.56-1.78s-.42-1.23-.6-1.86c-.63-2.12-1.71-4.74-2.69-7.23s-1.8-4.8-2.35-6.23c-.13-.33-.48-.07-.45.33.06.87.14,2,.24,3.32a40.76,40.76,0,0,0,.48,4.22c.24,1.47.51,3,.79,4.36.15.7.29,1.37.46,2s.39,1.23.58,1.77a39.24,39.24,0,0,0,2.67,6.05c.9,1.47,1.68,2.39,2.19,2.55,0,2.91,0,5.83.07,8.75a58.49,58.49,0,0,0-2.45-6.59c-.43-1-1-2.13-1.58-3.27-.3-.57-.62-1.14-.93-1.72s-.6-1.2-.9-1.78l-3.1-6c-.17-.31-.48,0-.41.38.33,1.74.88,4.58,1.57,7.45a64.16,64.16,0,0,0,2.61,7.6c2,4.63,4.27,7.94,5.29,8.21q.13,4.38.36,8.74a58.35,58.35,0,0,0-2.66-6.5,132.14,132.14,0,0,0-7.13-12c-.19-.28-.49,0-.39.38A97,97,0,0,0,59,369.29c2.19,4.55,4.54,7.79,5.57,8,.19,2.91.39,5.81.65,8.72a61.77,61.77,0,0,0-2.88-6.41,132.19,132.19,0,0,0-7.52-11.78c-.19-.27-.48,0-.38.4.94,3.18,3.27,10.34,5.34,14.26,2.32,4.48,4.79,7.64,5.83,7.84.28,2.9.59,5.79,1,8.68,0,.36.29.63.53.6s.4-.35.36-.72c-.37-2.87-.68-5.75-1-8.63,1-.3,2.8-3.88,4.48-8.61,1.42-4.09,3-11.14,3.71-14.22.08-.35-.23-.62-.41-.34A75.4,75.4,0,0,0,68,379.24a43.17,43.17,0,0,0-1.9,6.92c-.26-3-.47-5.93-.66-8.89,1-.26,2.93-3.79,4.75-8.46,1.57-4,3.35-11,4.18-14.07.09-.35-.21-.63-.39-.36a73.52,73.52,0,0,0-6.65,11.91,44.42,44.42,0,0,0-2.13,6.85c-.15-3-.28-5.93-.37-8.9,1-.23,3.05-3.69,5-8.3.84-2,1.78-4.71,2.6-7.31s1.72-4.75,2.19-6.14c.11-.31-.18-.6-.37-.37-.84,1-2.2,2.77-3.6,4.8-.35.5-.71,1-1.05,1.56s-.65,1.11-.95,1.66c-.61,1.1-1.17,2.19-1.61,3.19a44.84,44.84,0,0,0-2.35,6.77c0-3-.09-5.94-.06-8.91.49-.1,1.29-1,2.22-2.43a54.58,54.58,0,0,0,3.22-5.47c.24-.46.48-1,.73-1.5l.85-1.67c.57-1.15,1.14-2.36,1.68-3.54s1.12-2.32,1.62-3.32.93-1.89,1.26-2.56c.14-.3-.11-.62-.33-.41-1,.93-2.54,2.51-4.19,4.37a44.79,44.79,0,0,0-4.2,5.87,15.08,15.08,0,0,0-.9,1.73c-.27.57-.51,1.14-.74,1.7-.46,1.1-.85,2.16-1.15,3.1.16-3,.19-5.92.6-8.86,1-.09,3.44-3.23,6.28-7.22,2.29-3.51,5.87-9.43,7.49-11.93.18-.29,0-.64-.28-.45-1.06.84-2.8,2.26-4.64,3.94a48.52,48.52,0,0,0-4.84,5.39,44.29,44.29,0,0,0-3.54,6.17l.76-4.38.38-2.19.5-2.17c.51,0,1.48-.69,2.7-1.86S72.88,320.7,74.46,318.85Z" style="fill:#263238"></path><path d="M97.73,352.72c2.79-1.2,6.81-3.6,8.54-4.57.2-.11.06-.43-.18-.41-1,.1-2.77.31-4.62.65a28.93,28.93,0,0,0-5.17,1.45A20.39,20.39,0,0,0,92,352.18c1-1.63,2-3.22,3-4.81.92.46,3.9-.18,7.21-1.29,1.42-.48,3.15-1.28,4.76-2s3.06-1.36,3.93-1.75c.2-.08.08-.4-.16-.41a36.17,36.17,0,0,0-4.57.17,25.79,25.79,0,0,0-5.23,1,21,21,0,0,0-4.46,2.06c.8-1.13,1.59-2.27,2.42-3.38,1-.16,3.1-2.16,5.28-4.74.47-.57,1-1.24,1.52-2l1.62-2.23a42,42,0,0,1,2.89-3.64.24.24,0,0,0-.26-.38,23,23,0,0,0-4.18,2.43c-.8.56-1.55,1.19-2.27,1.81a21.34,21.34,0,0,0-1.84,1.87c-2.11,2.5-3.32,5-3.36,6.18-.86,1.13-1.66,2.3-2.48,3.45a36,36,0,0,0,.56-4.85c.07-1.58,0-3.64-.07-5.63s-.13-3.9-.13-5.08a.24.24,0,0,0-.47-.06,44.82,44.82,0,0,0-1.62,4.94,28.37,28.37,0,0,0-1,5.62c-.18,3.65.44,6.65,1.16,7.36-1,1.57-2,3.14-3,4.74a34.32,34.32,0,0,0,.25-4.87c0-1.58-.24-3.61-.5-5.57s-.48-3.82-.63-4.95a.24.24,0,0,0-.47,0,44.24,44.24,0,0,0-1.67,10.52c.07,3.64.81,6.58,1.6,7.27-1,1.6-1.87,3.23-2.76,4.87a31.43,31.43,0,0,0,0-4.87c-.23-3.12-1.33-8.13-1.75-10.37a.24.24,0,0,0-.47,0,45.56,45.56,0,0,0-1,10.51c.25,3.61,1.13,6.52,2,7.17-.89,1.64-1.71,3.32-2.54,5a30.67,30.67,0,0,0-.21-4.86,98.68,98.68,0,0,0-2.27-10.24.24.24,0,0,0-.47,0c-.16,1.13-.39,3-.54,4.92a33.35,33.35,0,0,0,0,5.59c.41,3.58,1.42,6.46,2.26,7.07-.82,1.68-1.55,3.4-2.31,5.1a29.3,29.3,0,0,0-.44-4.85,48,48,0,0,0-1.3-5.41c-.52-1.87-1.08-3.64-1.42-4.72a.24.24,0,0,0-.46,0,48.3,48.3,0,0,0,0,10.53c.56,3.58,1.75,6.41,2.61,7-.69,1.73-1.37,3.47-2,5.23a34.65,34.65,0,0,0-.73-4.82,53.12,53.12,0,0,0-1.6-5.36c-.61-1.85-1.23-3.61-1.62-4.68a.24.24,0,0,0-.46.07,45.7,45.7,0,0,0,.47,10.61c.77,3.57,2.13,6.31,3,6.81-.6,1.77-1.12,3.57-1.61,5.37a37.13,37.13,0,0,0-1.09-4.77c-.88-3-3-7.76-3.81-9.87a.24.24,0,0,0-.46.1,42.93,42.93,0,0,0,1.12,10.66c1,3.54,2.61,6.17,3.57,6.58a48.91,48.91,0,0,0-1,5.53.43.43,0,0,0,.4.48.46.46,0,0,0,.49-.38,50.51,50.51,0,0,1,1-5.42c1,.09,3.59-1.5,6.33-3.6,2.34-1.85,5.56-5.17,7-6.58.16-.16-.06-.43-.28-.35a39.67,39.67,0,0,0-8.91,4.56A19.88,19.88,0,0,0,75,390c.49-1.82,1-3.64,1.62-5.44,1,.19,3.71-1.18,6.61-3.12a91.16,91.16,0,0,0,7.48-6.21c.17-.16,0-.44-.26-.37-1,.33-2.67.9-4.42,1.61A30.39,30.39,0,0,0,81.25,379a20.62,20.62,0,0,0-3.77,3.16c.62-1.79,1.31-3.56,2-5.32,1,.26,3.78-.93,6.81-2.71a82,82,0,0,0,7.84-5.9c.18-.15,0-.44-.25-.38-1,.29-2.72.8-4.5,1.43a32,32,0,0,0-4.93,2.2,22.35,22.35,0,0,0-4,2.93c.77-1.74,1.51-3.48,2.34-5.19,1,.31,3.83-.72,7-2.38a47.48,47.48,0,0,0,4.43-2.87c1.49-1.05,2.85-2.07,3.67-2.69.19-.14,0-.44-.23-.39a45,45,0,0,0-9.58,3.21,23.23,23.23,0,0,0-4.1,2.74c.85-1.69,1.69-3.4,2.58-5.07.94.35,3.87-.56,7-2.08a92.76,92.76,0,0,0,8.34-5.11c.19-.13,0-.44-.21-.4a42,42,0,0,0-9.7,2.71,22.07,22.07,0,0,0-4.22,2.55c.91-1.66,1.83-3.32,2.8-4.95C91.53,354.83,94.5,354.06,97.73,352.72Z" style="fill:#263238"></path><path d="M59.16,449.53H71.54c9.79-4.3,17-18.53,17-35.42A53.32,53.32,0,0,0,85,394.73H45.66a53.54,53.54,0,0,0-3.48,19.38C42.18,431,49.37,445.23,59.16,449.53Z" style="fill:#263238"></path></g><g id="freepik--Toilet--inject-49"><path d="M292.29,223.93H402.52a0,0,0,0,1,0,0v97.86a7.25,7.25,0,0,1-7.25,7.25h-103a0,0,0,0,1,0,0V223.93A0,0,0,0,1,292.29,223.93Z" style="fill:#fff;stroke:#263238;stroke-linecap:round;stroke-linejoin:round"></path><path d="M371.32,251.92a6.1,6.1,0,1,1-6.08-6.51A6.3,6.3,0,0,1,371.32,251.92Z" style="fill:#8a8a8a;stroke:#263238;stroke-linecap:round;stroke-linejoin:round"></path><path d="M362.93,253.39l6.82,13.32,2.52-1.67L368,253s2-3.47-1.26-5" style="fill:#8a8a8a;stroke:#263238;stroke-linecap:round;stroke-linejoin:round"></path><path d="M377.4,223.93h25.12a0,0,0,0,1,0,0v97.86a7.25,7.25,0,0,1-7.25,7.25H382.65a5.25,5.25,0,0,1-5.25-5.25V223.93A0,0,0,0,1,377.4,223.93Z" style="fill:#dedede;stroke:#263238;stroke-linecap:round;stroke-linejoin:round"></path><rect x="292.29" y="226.41" width="110.23" height="17.94" style="fill:#263238;stroke:#263238;stroke-linecap:round;stroke-linejoin:round"></rect><path d="M288.89,223.93h119a.75.75,0,0,1,.75.75v16.44a.75.75,0,0,1-.75.75h-119a2.75,2.75,0,0,1-2.75-2.75V226.68A2.75,2.75,0,0,1,288.89,223.93Z" style="fill:#fff;stroke:#263238;stroke-linecap:round;stroke-linejoin:round"></path><path d="M380.75,223.93h27.18a.75.75,0,0,1,.75.75v16.44a.75.75,0,0,1-.75.75H380.75a0,0,0,0,1,0,0V223.93A0,0,0,0,1,380.75,223.93Z" style="fill:#dedede;stroke:#263238;stroke-linecap:round;stroke-linejoin:round"></path><path d="M259.65,374.67l-17.14,71.49a2.73,2.73,0,0,0,2.65,3.37H348.65a2.73,2.73,0,0,0,2.68-3.23l-13.24-70.6Z" style="fill:#dedede;stroke:#263238;stroke-linecap:round;stroke-linejoin:round"></path><path d="M294.43,375.13l-34.78-.46-17.14,71.49a2.73,2.73,0,0,0,2.65,3.37H299a3,3,0,0,0,3-3.33Z" style="fill:#fff;stroke:#263238;stroke-linecap:round;stroke-linejoin:round"></path><path d="M302.68,394.49a69,69,0,0,0,36.94-10.62l-1.53-8.17-78.44-1-1,4.07A68.91,68.91,0,0,0,302.68,394.49Z" style="fill:#263238;stroke:#263238;stroke-linecap:round;stroke-linejoin:round"></path><path d="M230.39,328c2.16,35.19,31.91,63.07,68.31,63.07S364.84,363.2,367,328Z" style="fill:#dedede;stroke:#263238;stroke-linecap:round;stroke-linejoin:round"></path><path d="M269.18,384.51C281.7,374.25,290.56,353,291.44,328H230.39A67.18,67.18,0,0,0,269.18,384.51Z" style="fill:#fff;stroke:#263238;stroke-linecap:round;stroke-linejoin:round"></path><path d="M234,320.32H364.91a2.75,2.75,0,0,1,2.75,2.75v7.5a0,0,0,0,1,0,0H230.25a0,0,0,0,1,0,0v-6.5A3.75,3.75,0,0,1,234,320.32Z" style="fill:#fff;stroke:#263238;stroke-linecap:round;stroke-linejoin:round"></path><polygon points="230.25 331.91 366.82 331.91 367.66 326.78 230.25 326.78 230.25 331.91" style="fill:#263238;stroke:#263238;stroke-linecap:round;stroke-linejoin:round"></polygon><rect x="230.25" y="325.45" width="137.41" height="5.13" style="fill:#fff;stroke:#263238;stroke-linecap:round;stroke-linejoin:round"></rect></g><g id="freepik--toilet-paper--inject-49"><path d="M425.27,283.41c-6.68,0-12.1,7.06-12.1,15.76s5.42,15.76,12.1,15.76h28.08V283.41Z" style="fill:#fff;stroke:#263238;stroke-linecap:round;stroke-linejoin:round"></path><ellipse cx="453.35" cy="299.17" rx="12.1" ry="15.76" style="fill:#fff;stroke:#263238;stroke-linecap:round;stroke-linejoin:round"></ellipse><path d="M456.8,299.17c0,2.49-1.54,4.5-3.45,4.5s-3.46-2-3.46-4.5,1.55-4.5,3.46-4.5S456.8,296.68,456.8,299.17Z" style="fill:#263238;stroke:#263238;stroke-linecap:round;stroke-linejoin:round"></path><path d="M476.78,296.67H453.35a2.5,2.5,0,0,0,0,5h23.43Z" style="fill:#8a8a8a;stroke:#263238;stroke-linecap:round;stroke-linejoin:round"></path></g><g id="freepik--Character--inject-49"><path d="M264.52,132.41a59.61,59.61,0,0,0-2.07,14.14V159a91.68,91.68,0,0,0,26.2,6.21c14.13,1,35.5-7.59,35.5-7.59s-2.76-9.65-5.86-18.95S290,125.18,276.93,125.18,264.52,132.41,264.52,132.41Z" style="fill:#263238;stroke:#263238;stroke-linecap:round;stroke-linejoin:round"></path><path d="M252.46,266.14s-28.69,8.81-44.64,19.09S189,305.08,186.9,310.4a28.41,28.41,0,0,0-2.13,9.57s-7.09,11.69-12.4,30.48-11.7,62.39-13.83,68.06S149,435.17,144,441.91s-2.13,9.92,4.61,11.34,16.3,1.42,19.14-2.48S172,435.88,172.37,426s4.25-22,4.25-22,16.66-29.78,24.11-46.08,14.18-29.07,14.18-29.07,28.71-5.32,43.24-6.74,40.41,2.48,59.56-1.77,28.35-5.67,34-19.85-1-32.13-1.75-34.67-10.66-5-13.5-5H263.82Z" style="fill:#dbdbdb;stroke:#263238;stroke-linecap:round;stroke-linejoin:round"></path><path d="M350,265.8c-.73-2.55-10.66-5-13.5-5H263.82l-11.36,5.37s-4.44,1.36-10.79,3.64c7,2.15,22.69,9,25.7,28.21a143.33,143.33,0,0,1,2.05,23.8c14.52.22,33.43,1.83,48.29-1.47,19.14-4.25,28.35-5.67,34-19.85S350.73,268.34,350,265.8Z" style="fill:#263238;stroke:#263238;stroke-linecap:round;stroke-linejoin:round"></path><path d="M265.6,275s11.69,5.67,14.18,17.72" style="fill:none;stroke:#fff;stroke-linecap:round;stroke-linejoin:round"></path><path d="M174.7,410.93c-6.85.47-11.21-.77-13.94-2.34a86.75,86.75,0,0,1-2.22,9.92c-2.12,5.67-9.57,16.66-14.53,23.4s-2.13,9.92,4.61,11.34,16.3,1.42,19.14-2.48S172,435.88,172.37,426A79.52,79.52,0,0,1,174.7,410.93Z" style="fill:#fff;stroke:#263238;stroke-linecap:round;stroke-linejoin:round"></path><path d="M274.86,145.51s1.38,5.52.34,7.93-11,2.76-14.13,3.1-20.33.35-23.78,16.89-7.58,34.12-9.65,43.77-6.2,18.27-6.2,22.4,6.2,8.27,12.06,7.93,6.89-3.45,8.62-9,7.58-20.34,7.58-20.34,5.17,10,9.31,13.45,4.13,5.85,4.13,10.34a19.27,19.27,0,0,1-3.1,10.33c-1.38,2.07-7.58,13.79-7.58,13.79s26.54,10.34,51.35,10S350,265.8,350,265.8s-3.79-14.13-7.92-23.1,2.06-35.84,4.13-52,3.45-19.64.35-25.85-10.69-9.3-20.34-10-17.57-1-20-2.07-3.1-8.27-3.1-8.27Z" style="fill:#dbdbdb;stroke:#263238;stroke-linecap:round;stroke-linejoin:round"></path><line x1="279.46" y1="155.65" x2="280.69" y2="161.84" style="fill:none;stroke:#263238;stroke-linecap:round;stroke-linejoin:round"></line><line x1="269.56" y1="161.01" x2="281.1" y2="165.55" style="fill:none;stroke:#263238;stroke-linecap:round;stroke-linejoin:round"></line><line x1="312.44" y1="161.84" x2="300.89" y2="165.96" style="fill:none;stroke:#263238;stroke-linecap:round;stroke-linejoin:round"></line><path d="M342.07,242.7c-2.09-4.52-1.54-13.6-.23-23.57-7.47-1.84-17.18-6.1-19.9-16-4-14.59,2.73-41.66,4.51-48.3l-.24,0-3.61-.25c-2.14,8.11-9.16,33.37-15.73,41-7.86,9.18-22.61,13.11-34.08,6.23s-10.48-21.3-8.85-29.82c1.1-5.7,4.39-12.56,6.45-16.49-1.4.26-2.94.44-4.4.59-2.4,6.06-7.82,19.65-11.55,28.35-4.91,11.47-6.88,16.06-6.88,23.92a36.65,36.65,0,0,0,1.68,11l.46-1.17s5.17,10,9.31,13.45,4.13,5.85,4.13,10.34a19.27,19.27,0,0,1-3.1,10.33c-1.38,2.07-7.58,13.79-7.58,13.79s26.54,10.34,51.35,10S350,265.8,350,265.8,346.2,251.67,342.07,242.7Z" style="fill:#fff;stroke:#263238;stroke-linecap:round;stroke-linejoin:round"></path><path d="M309.14,243.18c1,.33,2,.64,3,.92" style="fill:none;stroke:#263238;stroke-linecap:round;stroke-linejoin:round"></path><path d="M283.28,230.67a149.06,149.06,0,0,0,21.46,10.89" style="fill:none;stroke:#263238;stroke-linecap:round;stroke-linejoin:round"></path><path d="M280,232.3s7.21,4.26,13.43,7.54" style="fill:none;stroke:#263238;stroke-linecap:round;stroke-linejoin:round"></path><path d="M265.55,139s9.31,16.89,20.68,20.34c5.85,1.77,12.76-4.48,15.86-8.27s7.58-16.55,9.3-25.51-3.79-25.16-17.57-32.74-21.72-7.24-28.27,14.13S265.55,139,265.55,139Z" style="fill:#dbdbdb;stroke:#263238;stroke-linecap:round;stroke-linejoin:round"></path><path d="M279,140.69s4.13,3.1,6.89-.35" style="fill:none;stroke:#263238;stroke-linecap:round;stroke-linejoin:round"></path><path d="M281.06,146.89s6.55,4.14,9.65-3.1" style="fill:none;stroke:#263238;stroke-linecap:round;stroke-linejoin:round"></path><path d="M288.3,129.31s5.52,3.45,9.31-1" style="fill:none;stroke:#263238;stroke-linecap:round;stroke-linejoin:round"></path><path d="M285.89,120.7s7.24-3.45,12.75,1.38" style="fill:none;stroke:#263238;stroke-linecap:round;stroke-linejoin:round;stroke-width:2px"></path><path d="M275.89,129.31s-1.72,3.1-7.58,1" style="fill:none;stroke:#263238;stroke-linecap:round;stroke-linejoin:round"></path><path d="M275.89,122.42s-5.17-5.17-10.68,1.38" style="fill:none;stroke:#263238;stroke-linecap:round;stroke-linejoin:round;stroke-width:2px"></path><path d="M238.56,217.47l-1.18,8.71s-12.71,8.71-15.3,12.24-2.82,9.65-2.59,13.65,3.53,8.71,8.71,8.95,9.65-2.83,13-12S247,232.07,247,232.07s1.18-.71,2.36-3.53a16.31,16.31,0,0,0,.7-6.83s-4.47-.71-6.59-2.82S240,214.65,238.56,217.47Z" style="fill:#dbdbdb;stroke:#263238;stroke-linecap:round;stroke-linejoin:round"></path><path d="M237.38,226.18s-.47,3.53,1.41,5.89" style="fill:none;stroke:#263238;stroke-linecap:round;stroke-linejoin:round"></path><rect x="258.8" y="200.05" width="35.31" height="5.18" style="fill:#fff;stroke:#263238;stroke-linecap:round;stroke-linejoin:round"></rect><rect x="258.8" y="200.05" width="12.95" height="5.18" style="fill:#F97316;stroke:#263238;stroke-linecap:round;stroke-linejoin:round"></rect><path d="M244.91,226.89c1.42-.24,7.06-3.53,10.12-5.42s5.18-1.88,6.12-3.53.48-1.41-3.29-.7S247,219.36,247,219.36a29.06,29.06,0,0,1,5.18-3.77c2.35-1.18,9.89-5.65,10.59-7.53a3.46,3.46,0,0,0-.47-3.3v-1.65c0-.94-1.18-1.88-1.18-1.88v-1.18c0-1.17-6.12-2.59-10.35-2.59s-13.42,2.36-14.83,4,0,5.88,0,5.88.47,1.88,0,2.59a3.89,3.89,0,0,0-.71,3.77c.71,1.64,2.59,2.82,2.12,4s-1.88,2.35,0,3.76,3.06,1.89,3.3,2.59a5.56,5.56,0,0,0,1.64,2.59" style="fill:#dbdbdb;stroke:#263238;stroke-linecap:round;stroke-linejoin:round"></path><path d="M261.15,201.23s-13.18,1.41-20.94,4.71" style="fill:none;stroke:#263238;stroke-linecap:round;stroke-linejoin:round"></path><path d="M262.33,204.76S248.91,209,242.09,213" style="fill:none;stroke:#263238;stroke-linecap:round;stroke-linejoin:round"></path><path d="M339,285.94s-4.26-3.55-19.86-7.45-70.89,12.41-87.91,24.82c-15.25,11.11-14.53,14.88-14.18,23s22,101.38,22,101.38S221.29,443,216.68,445.1s-12.76,5.67-12.76,7.44,3.19,3.9,17,3.9S250.71,455,255.67,455s9.57-2.84,7.09-10.64-4.61-24.81-4.61-31.55-1.06-26.94-.35-44.66,0-33.68-4.61-40.77c0,0,39-.71,62.39-3.9s32.61-8.51,36.16-23" style="fill:#263238;stroke:#263238;stroke-linecap:round;stroke-linejoin:round"></path><path d="M293.19,281.09s16.57-4.7,28.94-2.22,20.52,11.13,22.5,14.59" style="fill:none;stroke:#fff;stroke-linecap:round;stroke-linejoin:round"></path><path d="M341.66,281.64a17.3,17.3,0,0,1,3.2,2.89" style="fill:none;stroke:#fff;stroke-linecap:round;stroke-linejoin:round"></path><path d="M324.62,277.89A28.28,28.28,0,0,1,338.81,280" style="fill:none;stroke:#fff;stroke-linecap:round;stroke-linejoin:round"></path><path d="M289,281.34c-21.52,4.91-47.16,14.2-57.81,22-15.25,11.11-14.53,14.88-14.18,23s22,101.38,22,101.38S221.29,443,216.68,445.1s-12.76,5.67-12.76,7.44,3.19,3.9,17,3.9S250.71,455,255.67,455s9.57-2.84,7.09-10.64-4.61-24.81-4.61-31.55-1.06-26.94-.35-44.66,0-33.68-4.61-40.77c0,0,32.57-.59,56-3.13C311.28,295.61,298.11,285.14,289,281.34Z" style="fill:#dbdbdb;stroke:#263238;stroke-linecap:round;stroke-linejoin:round"></path><path d="M236.57,417.14c1.49,6.51,2.44,10.59,2.44,10.59S221.29,443,216.68,445.1s-12.76,5.67-12.76,7.44,3.19,3.9,17,3.9S250.71,455,255.67,455s9.57-2.84,7.09-10.64c-2.17-6.81-4.06-20.65-4.51-28.53A50.89,50.89,0,0,1,236.57,417.14Z" style="fill:#fff;stroke:#263238;stroke-linecap:round;stroke-linejoin:round"></path><path d="M355.15,156.69c-.31-5.35-3.77-2.83-5-5.67s1.89-4.4,1.57-11.33-5.66-7.55-8.81-10.38.63-4.72.94-9.44-3.77-7.56-6.29-9.76-2.2-4.72-.63-11.33S332.18,86.51,329,84.93a5.56,5.56,0,0,1-3-3c-.78-6.52-4.86-9.75-11-11.75-4.64-1.51-9.41.06-13.94-1.33-2.1-.64-3.83-2.1-5.65-3.32-10.82-7.21-26.83-5.16-35.49,4.54-6.43,7.22-8.58,17.23-13.54,25.52-1.66,2.78-3.69,5.49-4.18,8.68s.57,6.39-.38,9.39c-1.15,3.68-4.91,5.87-6.95,9.14a11,11,0,0,0-1.38,8.15c.45,2,1.48,4,.87,6-.76,2.45-3.73,3.63-4.65,6-1.59,4.16,3.9,8.46,2.61,12.73-.46,1.55-1.76,2.72-2.42,4.2-1.07,2.39-.3,5.27,1.26,7.37a22.32,22.32,0,0,0,6,5c1-7.55,8.84-12.31,16.3-13.91,3.77-.8,7.74-1.13,11.14-2.95s4.54-4.91,3.34-8.58c-.61-1.87-.59-4.3-.84-6.24-.57-4.26,5-8.56,2.55-12.08a18.79,18.79,0,0,1-1.45-1.78c-1.93-3.62,5.85-6.62,4.63-10.53-.37-1.18-1.54-2-1.69-3.27s1-2.49,2-3.46a29.82,29.82,0,0,0,8.37-15.72,14.18,14.18,0,0,0,11.14,12.85c2.1.4,4.89.85,5.16,3,.13,1.05-.5,2-.86,3a6.25,6.25,0,0,0,2.32,7.09,9,9,0,0,1,2.48,1.75c1.89,2.51-1.58,5.77-1.57,8.91,0,4,5.34,5.77,7,9.43s-.65,8.29,1.76,11.35c.65.83,0,1.51.29,2.19.47,1.18.32.35,1.42,1.45,3.64,3.64,7.93,1.22,11.82,3.13.05,0,3.41,0,3.46,0,4.14,2,7.76-.6,12.21.18a29.25,29.25,0,0,1,5,1.92c8.09,4,6.7,7.65,6.7,7.65S355.47,162,355.15,156.69Z" style="fill:#263238;stroke:#263238;stroke-linecap:round;stroke-linejoin:round"></path><path d="M330.12,185.46s3.3,45.43,3.77,50.84.94,16.48,6.83,20.95,10.35,4.48,12.24,1.65S356,248.31,356,237.72s-1.14-40.34-4-56.5c-1.89-10.68-2.07-19-8.19-22.33s-13.77-2.17-17.94-.94" style="fill:#dbdbdb;stroke:#263238;stroke-linecap:round;stroke-linejoin:round"></path><path d="M316.64,212.45l2.85,8.31s25.52,15.7,28.74,18.66,4.65,8.92,5.2,12.89-1.77,9.23-6.81,10.47-8.57-1.95-15-9.26c-5.23-5.92-20.42-25.11-20.42-25.11s-1.29-.46-3-3a16.27,16.27,0,0,1-2-6.56s4.25-1.56,5.92-4S314.71,210,316.64,212.45Z" style="fill:#dbdbdb;stroke:#263238;stroke-linecap:round;stroke-linejoin:round"></path><path d="M319.49,220.76s1.15,3.38-.24,6.05" style="fill:#fff;stroke:#263238;stroke-linecap:round;stroke-linejoin:round"></path><path d="M312.24,222.92c-1.43,0-7.61-2.09-11-3.34s-5.45-.84-6.69-2.27-.74-1.3,3.1-1.34,11,0,11,0a28.71,28.71,0,0,0-5.81-2.68c-2.54-.7-10.8-3.62-11.86-5.33a3.48,3.48,0,0,1-.18-3.33l-.32-1.61a3.17,3.17,0,0,1,.79-2.08l-.23-1.15c-.23-1.16,5.5-3.73,9.66-4.56s13.62-.3,15.32,1.05,1.15,5.77,1.15,5.77-.1,1.94.5,2.54a3.84,3.84,0,0,1,1.42,3.55c-.37,1.76-2,3.28-1.3,4.34s2.31,1.94.74,3.7-2.64,2.44-2.73,3.18a5.69,5.69,0,0,1-1.12,2.86" style="fill:#dbdbdb;stroke:#263238;stroke-linecap:round;stroke-linejoin:round"></path><path d="M291.32,200.91s13.2-1.18,21.47.55" style="fill:none;stroke:#263238;stroke-linecap:round;stroke-linejoin:round"></path><path d="M290.85,204.6s14,1.55,21.46,4.15" style="fill:none;stroke:#263238;stroke-linecap:round;stroke-linejoin:round"></path></g><g id="freepik--close-up--inject-49"><path d="M320.37,185.78,370,130h-.2a11.71,11.71,0,0,1-11.71-11.71V94.22a11.71,11.71,0,0,1,11.71-11.71H474.44a11.71,11.71,0,0,1,11.71,11.71v24.09A11.71,11.71,0,0,1,474.44,130H380.89Z" style="fill:#fff;stroke:#263238;stroke-linecap:round;stroke-linejoin:round"></path><path d="M407.23,97.24a14.07,14.07,0,0,0-2.71-.27,12.91,12.91,0,0,0-6.8,1.86,18.12,18.12,0,0,1-12.16,1.09,13.44,13.44,0,0,1-3.25-1.37A13.08,13.08,0,0,0,376,97c-6,0-10.87,3.77-10.87,8.43s4.87,8.42,10.87,8.42a13.16,13.16,0,0,0,6.16-1.48,17.24,17.24,0,0,1,7.68-2.2,17.84,17.84,0,0,1,5.14.65,14.29,14.29,0,0,1,3.15,1.4,13,13,0,0,0,6.41,1.63,14.07,14.07,0,0,0,2.71-.27v.07L477,109.18a3.15,3.15,0,0,0,2.87-3.14h0a3.16,3.16,0,0,0-2.8-3.13Z" style="fill:none;stroke:#263238;stroke-linecap:round;stroke-linejoin:round"></path><path d="M477.07,102.91l-43.91-3.56V112L477,109.18a3.15,3.15,0,0,0,.07-6.27Z" style="fill:#F97316;stroke:#263238;stroke-linecap:round;stroke-linejoin:round"></path><rect x="405.61" y="101.82" width="17.3" height="7.16" rx="3.49" style="fill:#b2b2b2;stroke:#263238;stroke-linecap:round;stroke-linejoin:round"></rect><line x1="412.42" y1="103.31" x2="412.42" y2="107.66" style="fill:none;stroke:#263238;stroke-linecap:round;stroke-linejoin:round"></line><line x1="416.09" y1="103.31" x2="416.09" y2="107.66" style="fill:none;stroke:#263238;stroke-linecap:round;stroke-linejoin:round"></line></g></svg>