<svg xmlns="http://www.w3.org/2000/svg" xmlns:xlink="http://www.w3.org/1999/xlink" viewBox="0 0 500 500"><defs><clipPath id="freepik--clip-path--inject-37"><path d="M217.32,215.86s2.29,10.11,4.17,15.73,3.92,9.57,9.31,13.86,6.68,7.33,12.27,4.51,11.58-7.09,14.54-16.45,5.45-18.48,5.87-19.92-2.24-14.85-6.05-21.34-9.51-6.75-18.76-.7S218.6,206.09,217.32,215.86Z" style="fill:#fff;stroke:#263238;stroke-linecap:round;stroke-linejoin:round"></path></clipPath><clipPath id="freepik--clip-path-2--inject-37"><path d="M202.39,301.81c1.07,3.28,5.29,14.26,8,16.77s7.62,6.82,12.32-.24,9.25-24.55,10.15-31.94,1.95-23.08,2.54-26.18,3-20.75,2.24-21.91-20.06-9.66-20.06-9.66-6,11.62-5.37,14.44,10.63,17.38,10.71,19.27-3.65,10.1-7.93,15.72-8.65,9.35-10.35,14.4" style="fill:#fff;stroke:#263238;stroke-linecap:round;stroke-linejoin:round"></path></clipPath><clipPath id="freepik--clip-path-3--inject-37"><path d="M280.43,299.5c-.82,3.35-4.18,14.63-6.68,17.33s-7.07,7.39-12.31.72-11.11-23.76-12.58-31.06-3.73-22.86-4.56-25.91-4.59-20.45-3.93-21.66,19.25-11.18,19.25-11.18,6.84,11.11,6.47,14-9.25,18.15-9.18,20,4.41,9.79,9.12,15.07,9.35,8.65,11.44,13.55" style="fill:#fff;stroke:#263238;stroke-linecap:round;stroke-linejoin:round"></path></clipPath><clipPath id="freepik--clip-path-4--inject-37"><path d="M230.08,342.81c.14-6.74-2.15-12.92-9.16-17.21-7.71-4.72-17.92.34-25.61,14.62s-12.3,43.51-9.11,61,7.49,45.25,10.59,51.23,11.93,11.73,16,13.73,11.67,4.92,18.77,3.21,8.87-11.82,5.42-17.42-16.77-7.24-20.62-13.9-6.61-13.37-5.4-19.16,2.53-27.35,9.71-45.56C223.89,365,229.87,353.23,230.08,342.81Z" style="fill:#fff;stroke:#263238;stroke-linecap:round;stroke-linejoin:round"></path></clipPath><clipPath id="freepik--clip-path-5--inject-37"><path d="M261.12,335.88s-9.42-11.83-18-11.49-12.59,8.37-11.77,20.18,8.31,38.76,12.12,53.67.26,34.42-.59,40.19-2.56,8-3.62,8.39-12.7,5.51-20.84,8.34-9.43,6.46-3.56,9.82,20,6.75,30.25,3.49c23-7.3,18.11-13.21,21.7-35.39C271.73,402.66,282,362.55,261.12,335.88Z" style="fill:#fff;stroke:#263238;stroke-linecap:round;stroke-linejoin:round"></path></clipPath></defs><g id="freepik--Character--inject-37"><path d="M190.37,360.09l-.26,1.36-17.69,91.78a4,4,0,0,0,4.09,4.61h0a4.11,4.11,0,0,0,4-3l23.57-92.16Z" style="fill:#fff;stroke:#263238;stroke-linecap:round;stroke-linejoin:round"></path><path d="M269.93,360.09l.27,1.36,17.68,91.78a4,4,0,0,1-4.08,4.61h0a4.11,4.11,0,0,1-4-3L256.2,362.68Z" style="fill:#fff;stroke:#263238;stroke-linecap:round;stroke-linejoin:round"></path><path d="M247.62,242.78s-18-4.84-33.78,1.08S192.19,260,176.36,283.09s-14.78,38.17-10.56,52.14,16.37,30.1,53.31,36.55c25.8,4.51,71-2.59,80.9-31.84,3.79-11.26,2.48-23.65-.34-35-4.89-19.68-16.3-36.23-29.36-51.43C262.92,244.93,247.62,242.78,247.62,242.78Z" style="fill:#5e5e5e;stroke:#263238;stroke-linecap:round;stroke-linejoin:round"></path><path d="M246.27,248.59s-16.32-4.4-30.72,1-19.69,14.66-34.09,35.68S168,320,171.86,332.68s14.88,27.37,48.49,33.24c23.46,4.1,64.6-2.36,73.57-29,3.46-10.24,2.26-21.52-.3-31.82-4.45-17.89-14.83-32.95-26.71-46.77C260.19,250.54,246.27,248.59,246.27,248.59Z" style="fill:#3b3b3b;stroke:#263238;stroke-linecap:round;stroke-linejoin:round"></path><path d="M199.87,291.37s-17.59,11.17-23.41,27.53,3.42,32.68,20.36,39.55,53.77,6.26,73.59-2.85,20.88-23.13,19-38.12-14.76-26.86-26.11-35.29-46.12-3.33-53.21,1.25A57.53,57.53,0,0,0,199.87,291.37Z" style="fill:#FF8C00;stroke:#263238;stroke-linecap:round;stroke-linejoin:round"></path><path d="M202.61,295.68s-5.05.84-11.37,6.74-11.37,14.74-7.58,12.21,9.26-9.26,13.9-8,2.94,10.95,14.31,14.32,16,2.53,29.48-.84,17.27-3.79,24.85.84,14.32,4.63,14.32-3.37-7.16-12.21-18.11-17.27S220.72,290.21,202.61,295.68Z" style="opacity:0.30000000000000004"></path><path d="M225.2,223.38a146.15,146.15,0,0,0-30.68,10c-14.91,7-12.8,18.52-9.45,31.67s17,40.37,20.25,45.23,19.32-3.36,19.32-3.36,14.57,2.75,24.73,1.65,11.57-1.16,11.57-1.16,17.21-2.8,18.12-3.79,7.27-13,10.72-23.18c7.45-21.87,7.38-29.93,7-39.16-.28-7.21-19.13-16.34-25.8-17s-21-2.51-25.92-1.84S233.72,223.05,225.2,223.38Z" style="fill:#263238;stroke:#263238;stroke-linecap:round;stroke-linejoin:round"></path><path d="M263,212.67s2.85.12,3,5.1a11,11,0,0,1-4.39,9.18c-1.61,1.25-4.46,1.12-4.53-.78s3-15,3-15Z" style="fill:#fff;stroke:#263238;stroke-linecap:round;stroke-linejoin:round"></path><path d="M218.48,215.34s-3.08-.12-2.92,4.14.75,7.09,1.77,9,4.33,1.49,4.33,1.49l-2.23-14.62Z" style="fill:#fff;stroke:#263238;stroke-linecap:round;stroke-linejoin:round"></path><path d="M217.32,215.86s2.29,10.11,4.17,15.73,3.92,9.57,9.31,13.86,6.68,7.33,12.27,4.51,11.58-7.09,14.54-16.45,5.45-18.48,5.87-19.92-2.24-14.85-6.05-21.34-9.51-6.75-18.76-.7S218.6,206.09,217.32,215.86Z" style="fill:#fff"></path><g style="clip-path:url(#freepik--clip-path--inject-37)"><path d="M260.87,222.72c1.38-4.71,2.36-8.27,2.61-9.13.41-1.43-2.24-14.85-6.05-21.34s-9.51-6.75-18.76-.7-20.07,14.54-21.35,24.31c0,0,.59,2.59,1.41,5.88,5.41.59,22.48,1.4,26.69-11.16,1.81-5.38,3.1-9.29,4-12.11C248.24,205,248.88,215.24,260.87,222.72Z" style="opacity:0.30000000000000004"></path></g><path d="M217.32,215.86s2.29,10.11,4.17,15.73,3.92,9.57,9.31,13.86,6.68,7.33,12.27,4.51,11.58-7.09,14.54-16.45,5.45-18.48,5.87-19.92-2.24-14.85-6.05-21.34-9.51-6.75-18.76-.7S218.6,206.09,217.32,215.86Z" style="fill:none;stroke:#263238;stroke-linecap:round;stroke-linejoin:round"></path><path d="M242,222.25s-.37,8.79-.29,10.92-3.67,3-4.75-.29" style="fill:none;stroke:#263238;stroke-linecap:round;stroke-linejoin:round"></path><path d="M233.27,223.54c.06,1.7-.57,3.11-1.42,3.14s-1.59-1.32-1.66-3,.57-3.11,1.42-3.14S233.2,221.84,233.27,223.54Z" style="fill:#263238"></path><path d="M248.42,223c.07,1.7-.57,3.11-1.42,3.14s-1.59-1.32-1.65-3,.56-3.1,1.41-3.14S248.36,221.25,248.42,223Z" style="fill:#263238"></path><line x1="227.66" y1="219.49" x2="235.55" y2="215.15" style="fill:none;stroke:#263238;stroke-linecap:round;stroke-linejoin:round"></line><line x1="245.05" y1="215.49" x2="253.28" y2="219.68" style="fill:none;stroke:#263238;stroke-linecap:round;stroke-linejoin:round"></line><path d="M254.36,174.11s2.42-4.84,11-9,23.78,1.69,29.35,10.72,7.49,22,7.49,22a28.66,28.66,0,0,1-9.23,6.53,87,87,0,0,1-13.11,4.3s2.84-6.28-.05-19.68-10.69-18.8-14.9-17.21a57.69,57.69,0,0,0-8.38,4.12S254,177.44,254.36,174.11Z" style="fill:#263238;stroke:#263238;stroke-linecap:round;stroke-linejoin:round"></path><path d="M257.43,173.75a20.54,20.54,0,0,1,18.73-6.18c11.7,2.15,20.79,22.43,19.77,32.91" style="fill:none;stroke:#6e6e6e;stroke-linecap:round;stroke-linejoin:round"></path><path d="M258.83,173.22s7.82-6.23,17.24-1.85,10.52,14.53,10.52,14.53" style="fill:none;stroke:#6e6e6e;stroke-linecap:round;stroke-linejoin:round"></path><path d="M250.37,175.21s-6.47-7.81-21-4.4-20.85,12.9-23.26,24.14-4.14,15.58-3.13,17.2,6.86,5.66,16.85,6.22,16.92-4,22.61-10.12a41.9,41.9,0,0,0,8-12.65s-.11,9.49,3.66,15,11.27,9.28,12.22,9.25,3.7-8.45,4.86-21.54-6.1-22.76-12.33-24.18S250.37,175.21,250.37,175.21Z" style="fill:#263238;stroke:#263238;stroke-linecap:round;stroke-linejoin:round"></path><path d="M248.4,179.55s-6.29-9.48-19.43-5.65-17.36,17-17.33,17.75" style="fill:none;stroke:#6e6e6e;stroke-linecap:round;stroke-linejoin:round"></path><path d="M249,188.54S243.18,204,229.41,209.7s-19.42.75-22.43-3.64" style="fill:none;stroke:#6e6e6e;stroke-linecap:round;stroke-linejoin:round"></path><path d="M247.23,186a27.34,27.34,0,0,1-16.74,14.88c-12.65,4.05-13.41-3.51-13.41-3.51" style="fill:none;stroke:#6e6e6e;stroke-linecap:round;stroke-linejoin:round"></path><path d="M252.23,186.52s7.16,1.15,8.15,8.46,2.05,16.05,6.78,15.86" style="fill:none;stroke:#6e6e6e;stroke-linecap:round;stroke-linejoin:round"></path><path d="M253.08,183.88s10.79-3,15.32,3.67" style="fill:none;stroke:#6e6e6e;stroke-linecap:round;stroke-linejoin:round"></path><path d="M254.36,174.11s.43-13.3,14.07-16.2" style="fill:none;stroke:#6e6e6e;stroke-linecap:round;stroke-linejoin:round"></path><path d="M250.37,175.21s-6.77-15.39-29.2-6.93" style="fill:none;stroke:#6e6e6e;stroke-linecap:round;stroke-linejoin:round"></path><path d="M212.38,241.43s-1.18-5.89-1.21-6.84,2.88-5.09,4.21-7.51,2.2-4.59,3-2,1.09,3.75.45,5.67-2.18,4.83-2.13,6.25S213.47,245.18,212.38,241.43Z" style="fill:#fff;stroke:#263238;stroke-linecap:round;stroke-linejoin:round"></path><path d="M202.39,301.81c1.07,3.28,5.29,14.26,8,16.77s7.62,6.82,12.32-.24,9.25-24.55,10.15-31.94,1.95-23.08,2.54-26.18,3-20.75,2.24-21.91-20.06-9.66-20.06-9.66-6,11.62-5.37,14.44,10.63,17.38,10.71,19.27-3.65,10.1-7.93,15.72-8.65,9.35-10.35,14.4" style="fill:#fff"></path><g style="clip-path:url(#freepik--clip-path-2--inject-37)"><path d="M210.1,284c8.34,4.35,19,1.76,23.27-2.41.76-7.94,1.55-18.83,2-21.36.29-1.52,1-6.48,1.58-11.3-1.57.45-5.54,1.19-11.41-.66a37,37,0,0,1-13-7.78,6.38,6.38,0,0,0-.34,2.61c.58,2.83,10.63,17.38,10.71,19.27s-3.65,10.1-7.93,15.72C213.31,280.28,211.63,282.18,210.1,284Z" style="opacity:0.30000000000000004"></path></g><path d="M202.39,301.81c1.07,3.28,5.29,14.26,8,16.77s7.62,6.82,12.32-.24,9.25-24.55,10.15-31.94,1.95-23.08,2.54-26.18,3-20.75,2.24-21.91-20.06-9.66-20.06-9.66-6,11.62-5.37,14.44,10.63,17.38,10.71,19.27-3.65,10.1-7.93,15.72-8.65,9.35-10.35,14.4" style="fill:none;stroke:#263238;stroke-linecap:round;stroke-linejoin:round"></path><path d="M211.1,282.81c-2.82,3.3-5.28,6.17-6.46,9.67l-2.25,9.33c1.07,3.28,5.29,14.26,8,16.77s7.62,6.82,12.32-.24c3.59-5.38,7.08-16.81,8.93-25.22C215.53,294.67,211.9,286.93,211.1,282.81Z" style="fill:#263238;stroke:#263238;stroke-linecap:round;stroke-linejoin:round"></path><line x1="222.17" y1="230.85" x2="218.88" y2="244.02" style="fill:none;stroke:#263238;stroke-linecap:round;stroke-linejoin:round"></line><line x1="228.71" y1="234.39" x2="226.57" y2="246.57" style="fill:none;stroke:#263238;stroke-linecap:round;stroke-linejoin:round"></line><line x1="234.26" y1="236.78" x2="232.35" y2="248.71" style="fill:none;stroke:#263238;stroke-linecap:round;stroke-linejoin:round"></line><path d="M265.79,240.07s.72-6,.68-6.91-3.27-4.85-4.78-7.16-2.54-4.41-3.15-1.78-.8,3.83,0,5.69,2.55,4.65,2.61,6.07S265,243.89,265.79,240.07Z" style="fill:#fff;stroke:#263238;stroke-linecap:round;stroke-linejoin:round"></path><path d="M280.43,299.5c-.82,3.35-4.18,14.63-6.68,17.33s-7.07,7.39-12.31.72-11.11-23.76-12.58-31.06-3.73-22.86-4.56-25.91-4.59-20.45-3.93-21.66,19.25-11.18,19.25-11.18,6.84,11.11,6.47,14-9.25,18.15-9.18,20,4.41,9.79,9.12,15.07,9.35,8.65,11.44,13.55" style="fill:#fff"></path><g style="clip-path:url(#freepik--clip-path-3--inject-37)"><path d="M256.91,261.75c-.07-1.89,8.82-17.18,9.18-20a3.36,3.36,0,0,0-.11-1.16,4.87,4.87,0,0,1-3.14,2.44c-4,1.22-14.84,9.89-19.77,7a4,4,0,0,0-1.22-.49c1,4.75,2,9.63,2.45,11.11.83,3.05,3.09,18.62,4.56,25.91.32,1.63.87,3.74,1.58,6.1a106.47,106.47,0,0,0,12.29-19.94C259.47,268.07,257,263.19,256.91,261.75Z" style="opacity:0.30000000000000004"></path></g><path d="M280.43,299.5c-.82,3.35-4.18,14.63-6.68,17.33s-7.07,7.39-12.31.72-11.11-23.76-12.58-31.06-3.73-22.86-4.56-25.91-4.59-20.45-3.93-21.66,19.25-11.18,19.25-11.18,6.84,11.11,6.47,14-9.25,18.15-9.18,20,4.41,9.79,9.12,15.07,9.35,8.65,11.44,13.55" style="fill:none;stroke:#263238;stroke-linecap:round;stroke-linejoin:round"></path><path d="M277.47,290.37c-1.61-3.76-4.71-6.63-8.19-10.14-6.81,14.07-16.43,11.71-19.36,10.58,2.33,8.33,7.15,21.16,11.52,26.74,5.24,6.67,9.81,2,12.31-.72s5.86-14,6.68-17.33Z" style="fill:#263238;stroke:#263238;stroke-linecap:round;stroke-linejoin:round"></path><line x1="255.22" y1="230.28" x2="259.51" y2="243.16" style="fill:none;stroke:#263238;stroke-linecap:round;stroke-linejoin:round"></line><line x1="248.97" y1="234.32" x2="252.04" y2="246.29" style="fill:none;stroke:#263238;stroke-linecap:round;stroke-linejoin:round"></line><line x1="243.62" y1="237.13" x2="246.45" y2="248.88" style="fill:none;stroke:#263238;stroke-linecap:round;stroke-linejoin:round"></line><path d="M216.21,324.35s17.2-.31,26.9,0,8.64,19.38.25,25.09-14.88,4.52-23.52,3.78S210.43,332.47,216.21,324.35Z" style="fill:#263238;stroke:#263238;stroke-linecap:round;stroke-linejoin:round"></path><path d="M230.08,342.81c.14-6.74-2.15-12.92-9.16-17.21-7.71-4.72-17.92.34-25.61,14.62s-12.3,43.51-9.11,61,7.49,45.25,10.59,51.23,11.93,11.73,16,13.73,11.67,4.92,18.77,3.21,8.87-11.82,5.42-17.42-16.77-7.24-20.62-13.9-6.61-13.37-5.4-19.16,2.53-27.35,9.71-45.56C223.89,365,229.87,353.23,230.08,342.81Z" style="fill:#fff"></path><g style="clip-path:url(#freepik--clip-path-4--inject-37)"><path d="M236.93,451.93c-3.44-5.6-16.77-7.24-20.62-13.9s-6.61-13.37-5.4-19.16,2.53-27.35,9.71-45.56c3.27-8.3,9.25-20.08,9.46-30.5.14-6.74-2.15-12.92-9.16-17.21a11.38,11.38,0,0,0-4.76-1.64l.05.39a21.75,21.75,0,0,1,10.17,18.29c0,12.56-8.5,25.52-23.9,38.49-5.33,4.48-11.63,9.22-17,14.78.16,1.85.39,3.61.7,5.27,3.18,17.45,7.49,45.25,10.59,51.23s11.93,11.73,16,13.73,11.67,4.92,18.77,3.21S240.38,457.53,236.93,451.93Z" style="opacity:0.30000000000000004"></path></g><path d="M230.08,342.81c.14-6.74-2.15-12.92-9.16-17.21-7.71-4.72-17.92.34-25.61,14.62s-12.3,43.51-9.11,61,7.49,45.25,10.59,51.23,11.93,11.73,16,13.73,11.67,4.92,18.77,3.21,8.87-11.82,5.42-17.42-16.77-7.24-20.62-13.9-6.61-13.37-5.4-19.16,2.53-27.35,9.71-45.56C223.89,365,229.87,353.23,230.08,342.81Z" style="fill:none;stroke:#263238;stroke-linecap:round;stroke-linejoin:round"></path><path d="M236.93,451.93c-3.27-5.32-15.45-7.08-20-12.95-2.14-1-8-3.21-11,1.24-3.73,5.52-2.34,13.72-2.34,13.72s-4.88-3.76-8.59-6.48a27.88,27.88,0,0,0,1.72,5c3.1,6,11.93,11.73,16,13.73s11.67,4.92,18.77,3.21S240.38,457.53,236.93,451.93Z" style="fill:#525252;stroke:#263238;stroke-linecap:round;stroke-linejoin:round"></path><path d="M231.51,469.35c5.85-1.4,8.07-8.49,6.76-14.08-1.15,6.28-4.35,12.88-12.93,12.17-10-.83-21.11-8.23-27.2-12.9,3.8,5.17,11.06,9.84,14.6,11.6C216.76,468.13,224.41,471.06,231.51,469.35Z" style="fill:#fff;stroke:#263238;stroke-linecap:round;stroke-linejoin:round"></path><path d="M261.12,335.88s-9.42-11.83-18-11.49-12.59,8.37-11.77,20.18,8.31,38.76,12.12,53.67.26,34.42-.59,40.19-2.56,8-3.62,8.39-12.7,5.51-20.84,8.34-9.43,6.46-3.56,9.82,20,6.75,30.25,3.49c23-7.3,18.11-13.21,21.7-35.39C271.73,402.66,282,362.55,261.12,335.88Z" style="fill:#fff"></path><g style="clip-path:url(#freepik--clip-path-5--inject-37)"><path d="M262.4,337.62a42,42,0,0,1,2.47,7.86c4.05,19-7.3,30.38-21.07,31.19-2.2.13-4.14.17-5.88.16,2,7.89,4.05,15.58,5.54,21.41,3.81,14.92.26,34.42-.59,40.19s-2.56,8-3.62,8.39-12.7,5.51-20.84,8.34-9.43,6.46-3.56,9.82,20,6.75,30.25,3.49c23-7.3,18.11-13.21,21.7-35.39C271.63,403.31,281.51,364.27,262.4,337.62Z" style="opacity:0.30000000000000004"></path></g><path d="M261.12,335.88s-9.42-11.83-18-11.49-12.59,8.37-11.77,20.18,8.31,38.76,12.12,53.67.26,34.42-.59,40.19-2.56,8-3.62,8.39-12.7,5.51-20.84,8.34-9.43,6.46-3.56,9.82,20,6.75,30.25,3.49c23-7.3,18.11-13.21,21.7-35.39C271.73,402.66,282,362.55,261.12,335.88Z" style="fill:none;stroke:#263238;stroke-linecap:round;stroke-linejoin:round"></path><path d="M264.78,458c.67-2.15.57-4.88.43-8.23a54.91,54.91,0,0,1-11,4.7,17.07,17.07,0,0,0-4.33-9.88c-3-3.3-7.34-.58-9.44,1.11a3.08,3.08,0,0,1-1.23,1.1c-1.06.4-12.7,5.51-20.84,8.34s-9.43,6.46-3.56,9.82,20,6.75,30.26,3.49S262.87,464.19,264.78,458Z" style="fill:#525252;stroke:#263238;stroke-linecap:round;stroke-linejoin:round"></path><path d="M264.78,458a7.38,7.38,0,0,0,.22-.84c-10.22,6.47-22.6,11-37.54,9.46-11.87-1.23-15.06-4.9-15.88-7.17-1,1.8.1,3.69,3.27,5.51,5.87,3.36,20,6.75,30.26,3.49S262.87,464.19,264.78,458Z" style="fill:#fff;stroke:#263238;stroke-linecap:round;stroke-linejoin:round"></path></g></svg>